<?xml version="1.0" encoding="utf-8"?>
<!-- Generator: Adobe Illustrator 26.5.0, SVG Export Plug-In . SVG Version: 6.00 Build 0)  -->
<svg version="1.1" id="Layer_1" xmlns="http://www.w3.org/2000/svg" xmlns:xlink="http://www.w3.org/1999/xlink" x="0px" y="0px"
	 viewBox="0 0 607 279.6" style="enable-background:new 0 0 607 279.6;" xml:space="preserve">
<style type="text/css">
	.st0{fill:#222D58;}
</style>
<g>
	<g>
		<g>
			<g>
				<g>
					<path class="st0" d="M120.2,17.9c-24.4,0.2-48.9,0.4-73.3,0.6c1.6,1.9,3,3.8,4.2,5.8c3,5.6,4.5,14.6,4.3,47.2
						c0,7.9-0.1,15.7-0.1,23.6c-6.6-2.8-12.8,8.1-12.8,8.1s6-1.4,10.5,2.2c0.9,0.7,1.6,1.4,2.3,2.3c0,9.9-0.1,19.9-0.1,29.8
						c0,0-0.1,19.4-0.1,40.7c-0.1,15.3-5.7,30.4-10.8,37.2c14.9-6.9,34.9-11.5,48.8-14.1c0,0-13.8-4.4-13.8-17.9
						c0-2.4-0.9-6.4-1.3-12.1c-0.4-5.7-0.6-21.2-0.4-46.6c1.4-22.5,3.7-24.1,15.6-22.9c1.9,0.2,3.8,0.1,5.9-0.2
						c5.3-0.9,9.5-3.5,12.7-7.5c1.6-2,3.1-5.3,4.7-9.8c-10.2,1.3-20.3,2.8-30.5,4.4c-5.2,0.8-7.3-5.8-7.6-9.6
						C78,76.6,78,53,78.1,46.5c0-6.5,0.9-11,2.6-13.3c1.1-1.4,2.5-2.3,4.5-2.7c1.9-0.4,5.2-0.7,9.7-0.9c4.5-0.1,8.6,0.5,12.3,1.9
						c6.5,2.5,11.5,7.6,14.9,15.1c1.7,3.8,3.4,7.7,5.1,11.4c1.5-3.4,2.3-8,2.4-13.6c0-2.7-0.2-5.5-0.6-8.4
						C127.5,25.7,124.6,19.6,120.2,17.9z M66,161.9c-0.4-17.4-0.7-34.9-1.1-52.4c0.6-17.7,1.2-35.4,1.7-53c0.4,17.5,0.7,35,1.1,52.4
						C67.1,126.5,66.6,144.1,66,161.9z"/>
					<path class="st0" d="M555.7,99.4c0.1-13.3-0.5-24.6-1.9-33.6c-4.6-32.1-19.2-47.1-43.4-47.1c-8.5-0.1-15.7,1.5-21.7,4.4
						c-17,8.6-25.8,28.4-26.4,60.5c-5.2-1.4-9.7,4.1-9.7,4.1s5.6,0.6,9.6,4.8l0,0c0.2,27.6,5.9,60.3,10.4,78.8
						c12.8,52.7,55.2,50,68.4,24.9c5.6-10.7,8.6-20.3,10.8-34.6c1.9-12.8,3.2-37.7,3.7-51.8c4-3.1,9-1.9,9-1.9
						C564.5,108,560.6,100,555.7,99.4z M473.6,130c0,0-0.6-26.6-0.9-34.8c0.6-8.1,1.1-16.1,1.7-24.2c0.3,8.2,0.6,16.4,0.9,24.6
						C474.7,103.7,473.6,130,473.6,130z M532.8,95c-5.5-3.1-10.6,3.8-10.6,3.8s5.5,0.9,9.5,6.1c0.3,0.4,0.6,0.8,0.8,1.1
						c-0.4,13.1-1.2,36-2.3,45.9c-4,37-11.4,50.8-22.6,46.3c-20.7-8.1-22.4-78.1-22.3-101.8c0.1-0.1,0.3-0.2,0.4-0.3
						c4.1-3.3,9.6-2.5,9.6-2.4c0,0-4.6-7.5-9.9-6.9c0.7-38,9-56.9,24.8-56.6C526,30.6,533.6,52.2,532.8,95z M542.6,156.3
						c0,0-0.4-38.3-0.7-47.9c0.6-9.4,1.3-18.8,1.9-28.2c0.2,9.6,1.1,28.8,1.1,28.8L542.6,156.3z"/>
				</g>
				<path class="st0" d="M163.2,110.5c0.6-0.7,1.2-1.4,1.9-2c4.2-3.7,9.8-4.2,9.8-4.2s-5.6-6-11.6-3c0.1-3.6,0.2-7.4,0.3-11.2
					c0.2-4.5,0.4-8.8,0.6-12.9c0.2-4.2,0.6-9.1,1-14.9s1.8-11.6,4.1-17.3c-10.3,0-20.7,0.1-31,0.2c0.4,1.3,0.8,2.6,1.2,3.8
					c2,6.1,3.1,20.3,3.3,42.7c0.1,3.8,0.1,7.6,0.1,11.5c-5.9-1.8-11.5,5.7-11.5,5.8c0,0,5.6-0.8,9.8,2.1c0.6,0.4,1.2,0.9,1.7,1.4
					c0,5-0.1,11.7-0.2,20.1c-0.2,13.1-0.7,25.6-1.5,35.8c-0.4,4.9-0.7,9.2-1.1,12.8c-0.4,3.6-1.6,7-3.5,11.8c9.3-1.8,23-3.2,32-4.7
					c-2.4-2.5-6.3-5.7-5.5-70C163.2,115.9,163.2,113.2,163.2,110.5z M152.6,155.9c-0.3-13.5-0.6-27-0.8-40.5
					c0.6-13.6,1.2-27.3,1.8-40.8c0.3,13.5,0.6,27,0.8,40.5C153.8,128.6,153.2,142.2,152.6,155.9z"/>
				<path class="st0" d="M247.2,164.6c-2.4,2.2-5.2,4-8.3,5.3c-3.1,1.4-6.4,2.2-9.8,2.4c-3.4,0.3-6,0.3-7.7,0.1s-3.1-1.4-4.3-3.4
					c-1.2-2.1-1.7-8.7-1.6-19.8c0.1-13.8,0.3-27.7,0.4-41.5c0.2-0.2,0.4-0.3,0.6-0.5c4.2-3.3,9.8-3.5,9.8-3.5s-4.9-5.3-10.4-4
					c0.1-10.8,0.2-21.5,0.3-32.3c0-2.1,0.1-4.1,0.2-5.9c0.5-5.4,2.6-10.5,6.2-15.4c-12.3-0.4-24.7-0.7-37-1c1.5,1.6,2.7,3.2,3.7,4.8
					c2.8,4.2,4.2,10.7,4.1,19.6c-0.1,10.3-0.2,20.7-0.3,31c-5.6-1.1-10.6,5-10.6,5s5.6-0.4,9.8,2.7c0.2,0.2,0.5,0.4,0.7,0.5
					c0,2.9-0.1,5.8-0.1,8.7c-0.1,13.1-0.3,27.8-0.4,44c-0.1,6.6-1.5,12.1-4.3,16.7c-1.5,2.4-4.6,5.5-9.4,9.3
					c24.2-4.1,48.6-6.6,73-7.8c2.8-1.6,5.1-4.7,7-9.4c0.8-2.1,1.4-4.3,1.9-6.6s0.7-5.1,0.7-8.2c0-3.2-0.8-5.9-2.4-8.1
					C255.3,155.1,251.3,160.8,247.2,164.6z M204.1,151.1c-0.3-12.9-0.6-25.8-0.9-38.7c0.6-13,1.2-25.9,1.7-38.8
					c0.3,12.9,0.6,25.8,0.9,38.7C205.3,125.2,204.7,138.2,204.1,151.1z"/>
				<path class="st0" d="M362.4,101.2c-0.1-9.1-0.9-16.7-2.5-22.8c-5.3-21.6-20.2-32.6-44.8-33c-8.6-0.2-15.9,0.9-22,3.3
					c-17.1,6.5-26,23.4-26.6,50.3c-5.1-0.2-9.4,4.6-9.4,4.6s5.3-0.2,9.3,2.5c0.2,23.1,3.8,41,10.8,53.7c7.9,14.4,20,21.3,36.2,21.8
					s28.4-5.8,36.7-19.8c4.1-6.8,7.1-15.3,9.1-25.4c1.8-9,2.8-18.2,3.1-27.7c4.2-2.9,9.8-2.5,9.8-2.5
					C372.2,106.2,367.7,100.8,362.4,101.2z M278.8,132c-0.3-7-0.7-14-1-21c0.6-7,1.1-14,1.7-21c0.3,7,0.7,14,1,21
					C279.9,118,279.4,125,278.8,132z M338.3,107.4c0.1,0.1,0.2,0.2,0.4,0.3c-0.3,9.5-0.9,18-1.9,25.4c-3.7,27.1-11.4,40.1-23,39.8
					c-3.6-0.1-7-1.6-9.9-4.6c-9-8.9-13.5-29.3-13.7-61.2c0.3-0.2,0.6-0.5,0.9-0.7c4.2-3.1,9.9-3.1,9.9-3.1s-5-5.6-10.7-4.2
					c0.6-30.4,8.9-45.4,24.9-45.1c16,0.3,23.9,15.7,23.7,46.1c-5.5-1.3-10.3,3.9-10.3,3.9C328.5,104.1,334.1,104.2,338.3,107.4z
					 M350.3,133.9c-0.4-7.1-0.8-14.2-1.1-21.2c0.5-7,1-14.1,1.5-21.1c0.4,7.1,0.7,14.1,1.1,21.2
					C351.3,119.8,350.8,126.8,350.3,133.9z"/>
				<path class="st0" d="M433.9,123.8c-1.9-2.6-5-6.6-9.3-11.9c5.5-9.1,10.5-15.1,12.2-13.2c0.3-4.2-1.6-9.5-1.6-9.5
					c-3.1,3.5-8.3,10.6-13.8,18.9c-1.8-2.2-3.8-4.6-6-7.2c-3.1-3.6-5.8-7-8.1-10.4c-2-2.9-3.7-5.8-5-8.7c0.3-0.2,0.6-0.5,0.9-0.7
					c4.2-3,9.8-2.7,9.8-2.7s-6.5-8.1-13-3.9l-0.1,0.1c-0.2-1-0.2-1.9-0.2-2.8c0.1-2.5,0.3-4.6,0.8-6.3c1.6-5.9,5.7-8.8,12.1-8.5
					c7.5,0.3,14,4.9,19.5,14.1c4.7,7.8,7.4,16.7,8.1,26.4c0.8-0.4,1.6-1.4,2.3-3c2.1-4.8,3.3-12.6,3.5-23.3
					c0.4-16.7-1.5-26.5-5.8-29.2c-0.9,1.3-1.7,2.4-2.4,3.2c-2,2.2-4.7,3.3-8.1,3.2c-1.4,0-4.1-0.5-8.2-1.5c-2.2-0.5-5.5-0.8-9.8-0.9
					c-11.1-0.3-19.7,2.7-25.7,8.7c-4.7,4.7-7.3,10.5-7.8,17.4c-4.6,0-8.5,4.2-8.5,4.2s4.7,0.2,8.7,2.8c0.8,7.5,3.4,15.1,7.9,23
					c2.9,5,8.3,11.8,16.3,20.7c2,2.3,4,4.5,6,6.8c-0.8,1.5-1.6,2.9-2.3,4.3c-0.1-0.1-0.3-0.3-0.4-0.4c-4.1-3.8-9,0.5-9,0.5
					s3.8,0.7,6.4,3.4c0.3,0.3,0.5,0.6,0.8,0.9c-3.4,7.1-5.5,13.3-5.4,17.6c0.3,12.8,10.7,17.1,10.7,17.2c-6.4-6.3-2.6-22.3,3.9-38.1
					c9.5,11.5,14.1,22.3,13.8,31.6c-0.3,12.2-5.7,17.1-16.2,15.1c-5.5-1-10-4.3-13.4-9.8c-1.6-2.6-2.8-5.5-3.6-8.7
					c-0.8-3.3-1.2-6.7-1.1-10.4s0.6-8.6,1.6-14.8c-1.9,0.3-3.9,0.8-6,1.7c-7.9,3-13.2,8.6-15.7,16.5c-0.2,8.8,3.5,16.2,11.1,22.7
					c6.9,5.9,15.3,9.8,25.1,11.8c11.8,2.3,21.5,1.4,29.2-3.6c7.4-4.8,11.2-12.4,11.5-22.6c0.2-8.4-2.2-17.7-7.4-27.5
					C439.7,132.2,437,127.9,433.9,123.8z M412.5,116.8c-6.9-9.1-13.9-17.9-20.8-26.5c7.6,8,15.2,16.3,22.8,24.8
					c6.9,9.1,13.9,18.5,20.8,28.3C427.7,134.2,420.1,125.4,412.5,116.8z"/>
			</g>
			<g>
				<g>
					<path class="st0" d="M163.2,232.9c2.1,0.8,3.2,2.3,3.2,4.5c0,1.7-0.6,3.1-1.9,4.1c-0.6,0.5-1.4,0.8-2.2,1.1
						c-0.8,0.2-1.9,0.3-3.1,0.3h-13v-0.4c0.3-0.1,0.6-0.2,0.7-0.4c0.1-0.1,0.2-0.4,0.2-0.7v-16.1c0-0.3-0.1-0.5-0.2-0.7
						c-0.1-0.1-0.4-0.3-0.7-0.4v-0.4h12.9c1.2,0,2.2,0.1,3,0.3c0.7,0.2,1.4,0.5,2,0.9c1.1,0.9,1.7,2.2,1.7,3.8
						C165.8,230.8,164.9,232.1,163.2,232.9z M151.3,231.4h7.3c1.1,0,1.9-0.2,2.3-0.5c0.5-0.4,0.7-0.9,0.7-1.7s-0.2-1.4-0.7-1.7
						s-1.2-0.5-2.4-0.5h-7.3L151.3,231.4L151.3,231.4z M151.3,239.7h7c1.3,0,2.3-0.2,2.8-0.5c0.7-0.4,1-1.1,1-2s-0.3-1.6-1-2
						c-0.6-0.4-1.5-0.5-2.8-0.5h-7V239.7z"/>
					<path class="st0" d="M185.4,238h-8.6l-1.3,2.7c-0.2,0.4-0.3,0.7-0.3,0.9c0,0.4,0.3,0.7,0.9,0.9v0.4h-6.3v-0.4
						c0.4-0.1,0.7-0.2,0.8-0.4c0.2-0.2,0.4-0.5,0.7-1.1l7-14.6c0.2-0.5,0.3-0.8,0.3-1.1c0-0.4-0.3-0.7-0.8-0.9V224h6.7v0.4
						c-0.5,0.2-0.8,0.4-0.8,0.8c0,0.3,0.1,0.6,0.3,0.9l7.2,14.6c0.3,0.6,0.6,1,0.8,1.3c0.2,0.2,0.5,0.4,0.9,0.5v0.4h-7v-0.4
						c0.6-0.1,0.9-0.4,0.9-0.9c0-0.2-0.1-0.5-0.3-0.9L185.4,238z M184.2,235.4l-3.1-6.8l-3.1,6.8H184.2z"/>
					<path class="st0" d="M202.5,235.1v6.3c0,0.3,0.1,0.5,0.2,0.6c0.1,0.2,0.4,0.3,0.7,0.4v0.4h-5.9v-0.4c0.3-0.1,0.6-0.2,0.7-0.4
						c0.1-0.1,0.2-0.4,0.2-0.6v-16.1c0-0.3-0.1-0.5-0.2-0.7c-0.1-0.1-0.4-0.3-0.7-0.4v-0.4h11.9c1.4,0,2.6,0.1,3.4,0.2
						c0.8,0.2,1.6,0.5,2.2,0.9c0.7,0.5,1.3,1.1,1.6,2c0.3,0.8,0.5,1.6,0.5,2.6c0,3.1-1.7,4.9-5.2,5.4l3.7,5.2
						c0.7,0.9,1.1,1.5,1.4,1.8c0.3,0.3,0.7,0.4,1.1,0.4v0.4h-6.9v-0.4c0.5-0.1,0.7-0.2,0.7-0.5c0-0.2-0.2-0.6-0.7-1.2l-3.8-5.6h-4.9
						V235.1z M202.5,232h6.4c0.9,0,1.6,0,2-0.1s0.7-0.2,1.1-0.3c0.7-0.4,1.1-1.1,1.1-2.1s-0.4-1.7-1.1-2.1c-0.3-0.2-0.7-0.3-1.1-0.4
						c-0.4-0.1-1-0.1-2-0.1h-6.4V232z"/>
					<path class="st0" d="M240.3,232.9c2.1,0.8,3.2,2.3,3.2,4.5c0,1.7-0.6,3.1-1.9,4.1c-0.6,0.5-1.4,0.8-2.2,1.1
						c-0.8,0.2-1.9,0.3-3.1,0.3h-13v-0.4c0.3-0.1,0.6-0.2,0.7-0.4c0.1-0.1,0.2-0.4,0.2-0.7v-16.1c0-0.3-0.1-0.5-0.2-0.7
						c-0.1-0.1-0.4-0.3-0.7-0.4v-0.4h12.9c1.2,0,2.2,0.1,3,0.3s1.4,0.5,2,0.9c1.1,0.9,1.7,2.2,1.7,3.8
						C242.9,230.8,242,232.1,240.3,232.9z M228.4,231.4h7.3c1.1,0,1.9-0.2,2.3-0.5c0.5-0.4,0.7-0.9,0.7-1.7s-0.2-1.4-0.7-1.7
						s-1.2-0.5-2.4-0.5h-7.3L228.4,231.4L228.4,231.4z M228.4,239.7h7c1.3,0,2.2-0.2,2.8-0.5c0.7-0.4,1-1.1,1-2s-0.3-1.6-1-2
						c-0.6-0.4-1.5-0.5-2.8-0.5h-7V239.7z"/>
					<path class="st0" d="M254.2,234.5v5.2h12.2c0.3,0,0.5-0.1,0.6-0.2c0.1-0.1,0.3-0.4,0.4-0.7h0.4v4.9h-0.4
						c-0.1-0.3-0.2-0.6-0.4-0.7c-0.1-0.1-0.4-0.2-0.6-0.2h-17.2v-0.4c0.3-0.1,0.6-0.2,0.7-0.4c0.1-0.1,0.2-0.4,0.2-0.7v-16.1
						c0-0.3-0.1-0.5-0.2-0.7c-0.1-0.1-0.4-0.3-0.7-0.4v-0.4h16.9c0.3,0,0.5-0.1,0.6-0.2c0.1-0.1,0.3-0.4,0.4-0.7h0.4v4.9h-0.4
						c-0.1-0.3-0.2-0.6-0.4-0.7c-0.2-0.1-0.4-0.2-0.6-0.2h-11.9v4.5h7.7c0.3,0,0.5-0.1,0.6-0.2c0.1-0.1,0.3-0.4,0.4-0.7h0.4v4.8H263
						c-0.1-0.3-0.2-0.6-0.4-0.7c-0.2-0.1-0.4-0.2-0.6-0.2h-7.8V234.5z"/>
					<path class="st0" d="M278.7,235.1v6.3c0,0.3,0.1,0.5,0.2,0.6c0.1,0.2,0.4,0.3,0.7,0.4v0.4h-5.9v-0.4c0.3-0.1,0.6-0.2,0.7-0.4
						c0.1-0.1,0.2-0.4,0.2-0.6v-16.1c0-0.3-0.1-0.5-0.2-0.7c-0.1-0.1-0.4-0.3-0.7-0.4v-0.4h11.9c1.4,0,2.6,0.1,3.4,0.2
						c0.8,0.2,1.6,0.5,2.2,0.9c0.7,0.5,1.3,1.1,1.6,2c0.3,0.8,0.5,1.6,0.5,2.6c0,3.1-1.7,4.9-5.2,5.4l3.7,5.2
						c0.6,0.9,1.1,1.5,1.4,1.8s0.7,0.4,1.1,0.4v0.4h-6.9v-0.4c0.5-0.1,0.7-0.2,0.7-0.5c0-0.2-0.2-0.6-0.7-1.2l-3.8-5.6h-4.9V235.1z
						 M278.7,232h6.4c0.9,0,1.6,0,2-0.1s0.7-0.2,1.1-0.3c0.7-0.4,1.1-1.1,1.1-2.1s-0.4-1.7-1.1-2.1c-0.3-0.2-0.7-0.3-1.1-0.4
						c-0.4-0.1-1-0.1-2-0.1h-6.4V232z"/>
					<path class="st0" d="M326.5,232.9c2.1,0.8,3.2,2.3,3.2,4.5c0,1.7-0.6,3.1-1.9,4.1c-0.6,0.5-1.4,0.8-2.2,1.1
						c-0.8,0.2-1.9,0.3-3.1,0.3h-13v-0.4c0.3-0.1,0.6-0.2,0.7-0.4c0.1-0.1,0.2-0.4,0.2-0.7v-16.1c0-0.3-0.1-0.5-0.2-0.7
						c-0.1-0.1-0.4-0.3-0.7-0.4v-0.4h12.9c1.2,0,2.2,0.1,3,0.3s1.4,0.5,2,0.9c1.1,0.9,1.7,2.2,1.7,3.8
						C329.1,230.8,328.2,232.1,326.5,232.9z M314.6,231.4h7.3c1.1,0,1.9-0.2,2.3-0.5c0.5-0.4,0.7-0.9,0.7-1.7s-0.2-1.4-0.7-1.7
						s-1.2-0.5-2.3-0.5h-7.3V231.4z M314.6,239.7h7c1.3,0,2.3-0.2,2.8-0.5c0.7-0.4,1-1.1,1-2s-0.3-1.6-1-2c-0.6-0.4-1.5-0.5-2.8-0.5
						h-7V239.7z"/>
					<path class="st0" d="M340.4,235.1v6.3c0,0.3,0.1,0.5,0.2,0.6c0.1,0.2,0.4,0.3,0.7,0.4v0.4h-5.9v-0.4c0.3-0.1,0.6-0.2,0.7-0.4
						c0.1-0.1,0.2-0.4,0.2-0.6v-16.1c0-0.3-0.1-0.5-0.2-0.7c-0.1-0.1-0.4-0.3-0.7-0.4v-0.4h11.9c1.4,0,2.6,0.1,3.4,0.2
						c0.8,0.2,1.6,0.5,2.2,0.9c0.7,0.5,1.3,1.1,1.6,2c0.3,0.8,0.5,1.6,0.5,2.6c0,3.1-1.7,4.9-5.2,5.4l3.7,5.2
						c0.6,0.9,1.1,1.5,1.4,1.8s0.7,0.4,1.1,0.4v0.4h-6.9v-0.4c0.5-0.1,0.7-0.2,0.7-0.5c0-0.2-0.2-0.6-0.7-1.2l-3.8-5.6h-4.9V235.1z
						 M340.4,232h6.4c0.9,0,1.6,0,2-0.1s0.7-0.2,1.1-0.3c0.7-0.4,1.1-1.1,1.1-2.1s-0.4-1.7-1.1-2.1c-0.3-0.2-0.7-0.3-1.1-0.4
						c-0.4-0.1-1-0.1-2-0.1h-6.4V232z"/>
					<path class="st0" d="M375.2,238h-8.6l-1.3,2.7c-0.2,0.4-0.3,0.7-0.3,0.9c0,0.4,0.3,0.7,0.9,0.9v0.4h-6.3v-0.4
						c0.4-0.1,0.7-0.2,0.8-0.4c0.2-0.2,0.4-0.5,0.7-1.1l7-14.6c0.2-0.5,0.3-0.8,0.3-1.1c0-0.4-0.3-0.7-0.8-0.9V224h6.7v0.4
						c-0.5,0.2-0.8,0.4-0.8,0.8c0,0.3,0.1,0.6,0.3,0.9l7.2,14.6c0.3,0.6,0.6,1,0.8,1.3c0.2,0.2,0.5,0.4,0.9,0.5v0.4h-7v-0.4
						c0.6-0.1,0.9-0.4,0.9-0.9c0-0.2-0.1-0.5-0.3-0.9L375.2,238z M374,235.4l-3.1-6.8l-3.1,6.8H374z"/>
					<path class="st0" d="M392,229.9v11.5c0,0.3,0.1,0.5,0.2,0.7c0.1,0.1,0.4,0.3,0.7,0.4v0.4h-5.6v-0.4c0.3-0.1,0.6-0.2,0.7-0.4
						c0.1-0.1,0.2-0.4,0.2-0.7v-16.1c0-0.3-0.1-0.5-0.2-0.6s-0.4-0.3-0.7-0.4v-0.4h6.5v0.4c-0.4,0.1-0.6,0.3-0.6,0.6
						c0,0.2,0.1,0.5,0.4,0.7l10.5,10.9v-11.3c0-0.3-0.1-0.5-0.2-0.6s-0.4-0.3-0.7-0.4v-0.4h5.6v0.4c-0.3,0.1-0.6,0.2-0.7,0.4
						c-0.1,0.1-0.2,0.4-0.2,0.6v16.1c0,0.3,0.1,0.5,0.2,0.7s0.4,0.3,0.7,0.4v0.4h-6v-0.4c0.4-0.1,0.6-0.3,0.6-0.6
						c0-0.2-0.2-0.5-0.7-1L392,229.9z"/>
					<path class="st0" d="M415.9,241.4v-16.1c0-0.3-0.1-0.5-0.2-0.7c-0.1-0.1-0.4-0.3-0.7-0.4v-0.4h10.6c2.3,0,4.1,0.3,5.3,0.8
						c1.8,0.8,3.1,2,4,3.8c0.7,1.4,1,3,1,4.9c0,3.3-1,5.8-3,7.5c-0.8,0.7-1.8,1.2-3,1.6c-1.1,0.3-2.6,0.5-4.3,0.5H415v-0.4
						c0.3-0.1,0.6-0.2,0.7-0.4C415.8,241.9,415.9,241.7,415.9,241.4z M420,239.7h5.2c1.7,0,2.9-0.2,3.7-0.7c1.8-1,2.7-2.9,2.7-5.7
						c0-2-0.5-3.6-1.5-4.7c-0.5-0.6-1.2-1-1.9-1.3c-0.8-0.3-1.8-0.4-3-0.4H420V239.7z"/>
				</g>
				<g>
					<path class="st0" d="M448.6,261.7l-1.9-1.2c-6.5-4-13.1-4.1-26.2-4.4c-3.4-0.1-7.2-0.2-11.5-0.3c-11.2-0.4-67.3-0.6-117.9-0.6
						s-106.7,0.2-117.9,0.6c-4.3,0.2-8.1,0.2-11.5,0.3c-13.2,0.3-19.8,0.4-26.2,4.4l-1.9,1.2l-14.9-28.3l14.9-28.3l1.9,1.2
						c6.5,4,12.6,4.1,26.2,4.4c3.3,0.1,7.1,0.2,11.4,0.3c11.2,0.4,67.4,0.6,118.1,0.6c50.8,0,107-0.2,118.1-0.6
						c4.3-0.2,8-0.2,11.4-0.3c13.5-0.3,19.7-0.4,26.2-4.4l1.9-1.2l14.9,28.3L448.6,261.7z M123.4,233.4l11.8,22.5
						c6.8-3.5,13.7-3.7,26.4-3.9c3.3-0.1,7.1-0.2,11.4-0.3c11.2-0.4,67.4-0.6,118.1-0.6s106.8,0.2,118.1,0.6
						c4.3,0.2,8.1,0.2,11.4,0.3c12.7,0.3,19.6,0.4,26.4,3.9l11.8-22.5L447,210.9c-6.8,3.5-13.7,3.7-26.3,4
						c-3.3,0.1-7.1,0.2-11.3,0.3c-11.2,0.4-67.5,0.6-118.3,0.6s-107.1-0.2-118.3-0.6c-4.2-0.2-8-0.2-11.3-0.3
						c-12.7-0.3-19.6-0.4-26.3-4L123.4,233.4z"/>
				</g>
				<path class="st0" d="M504,233.4l-22.6-14l-12.1,11.2l-3.8-4.7l-6.1,7.5l6.1,7.5l3.8-4.7l12.1,11.2L504,233.4z M481.9,224.6
					l14.1,8.8l-14.1,8.8l-9.5-8.8L481.9,224.6z"/>
				<path class="st0" d="M99.4,247.4l12.1-11.2l3.8,4.7l6.1-7.5l-6.1-7.5l-3.8,4.7l-12.1-11.2l-22.6,14L99.4,247.4z M108.4,233.4
					l-9.5,8.8l-14.1-8.8l14.1-8.8L108.4,233.4z"/>
				<g>
					<path class="st0" d="M450.9,233.4c0,2.3-1.8,4.1-4.1,4.1c-2.3,0-4.1-1.8-4.1-4.1s1.8-4.1,4.1-4.1
						C449.1,229.2,450.9,231.1,450.9,233.4z"/>
					<path class="st0" d="M131.2,233.4c0,2.3,1.8,4.1,4.1,4.1s4.1-1.8,4.1-4.1s-1.8-4.1-4.1-4.1
						C133.1,229.2,131.2,231.1,131.2,233.4z"/>
				</g>
			</g>
		</g>
	</g>
</g>
</svg>
