<?xml version="1.0" encoding="UTF-8"?>
<svg width="510px" height="122px" viewBox="0 0 510 122" version="1.1" xmlns="http://www.w3.org/2000/svg" xmlns:xlink="http://www.w3.org/1999/xlink">
    <title>Group 23</title>
    <defs>
        <polygon id="path-1" points="0 0 42 0 42 74 0 74"></polygon>
        <polygon id="path-3" points="0 0 59 0 59 82 0 82"></polygon>
    </defs>
    <g id="Page-1" stroke="none" stroke-width="1" fill="none" fill-rule="evenodd">
        <g id="Home" transform="translate(-465.000000, -5418.000000)">
            <g id="Group-23" transform="translate(465.000000, 5418.000000)">
                <path d="M36.722498,40.0389957 C37.4704093,39.90901 38.0515732,40.1039886 38.4672157,40.6239317 C38.8816322,41.1451011 39.3978136,42.2291334 40.0133078,43.8760286 C40.8740189,46.1826629 41.3632265,47.6137327 41.4846088,48.1692379 C41.7800951,48.9589628 41.8217819,49.6579429 41.6145737,50.2612731 C41.3546439,50.7358438 40.8789232,51.1392902 40.1812813,51.4777437 C39.4811873,51.8174235 38.7345021,52.1374828 37.9375474,52.4428268 C37.1393666,52.7469444 36.5876287,52.9615436 36.284786,53.0780403 C33.7798961,54.0455759 32.2534213,55.0646153 31.7078139,56.1130854 C31.2823627,56.809613 31.1720151,57.5748122 31.3718668,58.4025518 C31.5704924,59.2315177 32.1393955,60.822004 33.0748977,63.1740107 C34.609955,67.0294378 36.1450124,70.8848648 37.6800697,74.7402919 C39.6148305,74.9168764 41.5446869,75.1020448 43.469639,75.2982497 C44.2052895,75.4650239 44.6748797,75.8132877 44.8771836,76.3356833 C45.130983,76.9941962 45.029218,77.5963001 44.576793,78.150579 C43.2967611,79.5914591 42.0253119,81.0360179 40.7636713,82.4842556 C43.9894987,90.5875197 47.2153261,98.6895574 50.4411534,106.792821 C50.5968661,107.184005 50.9230045,108.001934 51.4158903,109.242931 C51.9112283,110.486379 52.0902366,111.435521 51.9578195,112.094034 C51.8254024,112.754999 51.3974991,113.265132 50.6753355,113.63179 C49.8158505,114.052404 48.5358187,114.610362 46.8389182,115.309342 C45.1407917,116.008322 43.8730207,116.500061 43.0331531,116.778427 C41.9909815,117.141406 41.1952529,117.059245 40.6496455,116.525813 C40.102812,115.994833 39.6454826,115.254159 39.2813356,114.29766 C38.9159625,113.347293 38.6658414,112.7084 38.5272938,112.384662 C35.0452149,104.196785 31.5631359,96.0089074 28.081057,87.82103 C26.0764094,87.6800077 24.0656314,87.5512482 22.0511752,87.4335252 C21.4356809,87.3955105 20.9734472,87.0214949 20.6632479,86.3114782 C20.4376484,85.7976666 20.4915961,85.2348036 20.8275432,84.6290209 C22.121062,83.0667391 23.4231633,81.5093623 24.7362994,79.9568908 C22.9879035,75.8476235 21.2395075,71.7371301 19.4923376,67.6278628 C18.6941568,65.7516531 18.0946017,64.4947152 17.6936721,63.8644068 C17.2915165,63.2328722 16.7692047,62.786506 16.1267366,62.5265344 C15.4082513,62.2984462 14.5892271,62.3058038 13.6721162,62.5473812 C12.7537791,62.7914111 11.5448602,63.2377773 10.0478114,63.8962901 C8.62555384,64.5204671 7.75135585,64.8724097 7.42521747,64.9398552 C6.27515054,65.3764112 5.4046308,65.5358277 4.81243216,65.4144259 C4.22023352,65.2967029 3.66726958,64.773081 3.15967074,63.8447863 C2.6447154,62.8036739 2.12976007,61.7637877 1.61480473,60.7226752 C1.1611536,59.6153436 0.70627638,58.508012 0.252625248,57.4019066 C-0.0649305443,56.6980214 -0.0833218064,56.0493188 0.198677546,55.4594777 C0.387494503,55.0670678 0.771258839,54.6991836 1.35364881,54.3631826 C1.9335866,54.0271817 2.53559392,53.7402319 3.16089683,53.4998809 C3.78497365,53.2632087 4.36368537,53.0265365 4.89825805,52.7910905 C14.0558805,48.7639842 23.2858419,44.9637397 32.5783336,41.3903573 C34.5915638,40.616574 35.9758127,40.1726603 36.722498,40.0389957" id="Fill-1" fill="#FFFFFF"></path>
                <path d="M106.998995,92.7981562 C106.979553,93.5305803 106.634465,94.1009205 105.962515,94.5103956 C105.291781,94.9210893 103.916289,95.4231837 101.839686,96.0337402 C99.7630823,96.6455154 98.4058172,97.0196489 97.76303,97.1415165 C96.567373,97.4303426 95.7763438,97.2524159 95.3899424,96.6040805 C95.0023259,95.955745 94.5138563,94.66273 93.9208882,92.723817 C92.1091761,86.9204831 90.296249,81.1171493 88.4833219,75.3138155 C87.9110104,73.444367 87.3459896,72.1184478 86.7906895,71.3372766 C85.8137502,69.9589544 83.7177051,69.7603103 80.5219958,70.7791232 C79.0687378,71.2446573 78.0286134,71.6187907 77.3967621,71.8978675 C76.4757174,72.2707823 75.879104,72.77897 75.6093521,73.4212121 C75.33717,74.0622356 75.3274492,74.8214705 75.5753293,75.695261 C75.8232094,76.5714889 76.101467,77.4720902 76.4076719,78.4019398 C78.3967883,84.4416967 80.3859047,90.4814536 82.3762363,96.5212105 C82.9655591,98.3126638 83.2316657,99.5873986 83.1757711,100.341759 C83.1186615,101.097338 82.6836562,101.68474 81.8707552,102.103964 C81.0566392,102.526844 79.3469954,103.173961 76.7466844,104.074563 C75.5145744,104.501099 74.5570767,104.783832 73.8741913,104.91423 C73.1888756,105.04341 72.663953,105.027567 72.2969933,104.860609 C71.8145991,104.587625 71.4172619,104.117216 71.1037664,103.450601 C70.7890559,102.783985 70.2811447,101.462941 69.5800328,99.4874672 C62.6879934,80.0971178 55.7971692,60.7067683 48.906345,41.3164188 C48.0399796,38.8815047 47.7933146,37.3350052 48.1724254,36.6805764 C48.549106,36.0298035 50.595332,35.0353641 54.3183942,33.7533173 C56.4132242,33.0330799 57.7461874,32.6248236 58.3124233,32.5053933 C59.5761259,32.1544147 60.4607177,32.2835943 60.9637685,32.8904949 C61.4643891,33.4973954 61.869017,34.2663798 62.1740067,35.193792 C62.4814267,36.1248602 62.6892085,36.7549156 62.7973523,37.0851767 C64.6127096,42.593591 66.4268519,48.1032239 68.2422092,53.6116382 C68.3940965,54.078391 68.6516974,54.8559061 69.0125817,55.9514956 C69.373466,57.0458664 69.7246295,57.8684725 70.0709326,58.4168766 C70.4160206,58.964062 70.827939,59.3455075 71.307903,59.5526824 C72.1718381,59.9329092 73.8231571,59.7172036 76.2703657,58.9335951 C77.8281221,58.4339381 78.9569488,58.0061829 79.6592758,57.6393615 C81.1028129,57.0409917 81.8209362,56.1976681 81.8136456,55.1020786 C81.8027097,54.0089265 81.4843539,52.4270854 80.8512875,50.354118 C79.9423937,47.3805492 79.0322849,44.4069805 78.1233911,41.432193 C76.7126616,36.8231614 75.842651,33.8349685 75.5109291,32.4749264 C74.7563528,30.0034521 74.5789485,28.4484218 74.9835763,27.8122731 C75.3882041,27.1797804 77.4271396,26.2938032 81.1149639,25.2067444 C83.2328808,24.5840011 84.5767798,24.2354599 85.1466611,24.1440592 C86.4212995,23.851577 87.2913101,24.0051301 87.7566929,24.5986252 C88.2196455,25.193339 88.5695939,25.9123577 88.805323,26.7532439 C89.0410521,27.5953488 89.2063056,28.1839692 89.3010832,28.519105 C94.9367106,48.6040997 100.572338,68.6890943 106.207965,88.7740889 C106.755975,90.7264074 107.018436,92.0681694 106.998995,92.7981562" id="Fill-3" fill="#FFFFFF"></path>
                <path d="M148.323039,77.635466 C148.711446,79.5514712 148.924087,80.9665918 148.96219,81.8820435 C149.112144,82.989582 148.815923,83.7251043 148.075983,84.0873946 C147.333585,84.4496849 146.111824,84.8034651 144.405784,85.158461 C136.692958,86.7644526 129.007173,88.5333534 121.352117,90.4651632 C120.293831,90.7326258 119.416228,90.9040451 118.720537,90.9745579 C118.023617,91.0450708 117.420112,90.969695 116.907562,90.7399202 C116.393784,90.5137927 116.01521,90.0919312 115.774299,89.4682569 C115.53093,88.8470141 115.10442,87.3893427 114.489853,85.097674 C109.23284,65.4829356 103.975827,45.8681973 98.7200427,26.2546746 C98.2148679,24.3678472 97.9739573,23.0779478 98.0022275,22.3849763 C98.0280393,21.6932207 98.3795721,21.169237 99.0519093,20.8130254 C99.7254756,20.4580295 101.138982,20.0021272 103.294885,19.4586918 C111.920959,17.2849498 120.582678,15.2947846 129.273896,13.4869802 C131.847706,12.9508391 133.550058,12.8633059 134.37235,13.1952027 C135.032396,13.5611403 135.654339,15.1805051 136.23572,18.0520814 C136.568816,19.6933295 136.756873,20.8276142 136.80358,21.4597987 C136.94616,22.5709845 136.602002,23.3125854 135.774794,23.6931119 C134.946357,24.0736383 133.386583,24.4942841 131.097933,24.9720696 C127.188053,25.7890465 123.285547,26.6437112 119.389187,27.5360639 C117.515984,28.0381642 116.296682,28.6667015 115.727592,29.4083025 C115.160961,30.1523349 114.996256,31.3559169 115.237167,33.020264 C115.544451,34.4524049 115.852964,35.8857616 116.160248,37.3191183 C116.473677,38.607802 117.020643,40.5213757 117.801144,43.0598394 C118.098595,44.2804417 118.682434,45.1825203 119.548975,45.7660752 C120.18075,46.0469109 120.951418,46.1526803 121.862208,46.0845989 C122.770539,46.0165175 124.026716,45.7989001 125.629509,45.4366098 C128.682681,44.7485013 130.565717,44.3813481 131.268783,44.2986778 C132.645415,44.0020374 133.612744,44.0312151 134.165855,44.3764851 C134.721425,44.726618 135.166372,45.5034755 135.505613,46.7143518 C135.733003,47.5933314 135.961623,48.4735266 136.189013,49.3525062 C136.379529,50.2387802 136.572503,51.5165222 136.772852,53.1857323 C137.065386,54.5522233 136.399195,55.4737537 134.781652,55.9612652 C133.672972,56.2712787 131.170452,56.8402447 127.283925,57.7240872 C125.040753,58.2359135 123.634621,58.8717452 123.066761,59.6145619 C122.496442,60.3573786 122.431298,61.791951 122.86887,63.9097689 C123.1823,65.8415787 123.48098,67.3855677 123.761222,68.5368728 C124.102922,69.7830057 124.445851,71.0291385 124.786322,72.2740555 C125.32837,73.8678898 125.999478,74.8915423 126.798417,75.3462288 C127.598584,75.8045626 128.873197,75.862918 130.625945,75.5310212 C134.175688,74.7189073 137.72912,73.9396184 141.289925,73.1943702 C141.725039,73.1044055 142.509228,72.957301 143.64372,72.7603513 C144.778212,72.5670487 145.649669,72.5670487 146.256862,72.7652142 C146.865285,72.9633797 147.281961,73.4338709 147.506893,74.1693932 C147.745346,74.9766441 148.018214,76.1315964 148.323039,77.635466" id="Fill-5" fill="#FFFFFF"></path>
                <path d="M218.898946,56.2249717 C219.047373,58.3913679 219.031557,60.3232951 218.856364,62.019532 C218.27482,66.3462185 216.382979,69.9511799 213.228288,72.8771582 C210.069946,75.8080211 206.429824,77.4676223 202.234924,77.8974822 C199.248126,78.2040016 196.314859,77.8229894 193.408358,76.756888 C190.499424,75.6907866 187.790015,73.8809787 185.257015,71.3176948 C183.500218,69.6409969 182.371197,67.0398561 181.893066,63.4996178 C180.002441,49.7611976 178.109383,36.0239986 176.213891,22.2867995 C175.615315,19.0481959 176.268639,15.7729566 178.229828,12.4781781 C180.188583,9.18584201 183.037903,6.67140581 186.759539,4.97150528 C188.153784,4.31816707 189.49693,3.92250057 190.788979,3.78206339 C192.475212,3.52927645 194.047083,3.34731871 195.503375,3.23496896 C196.959667,3.12384041 197.930529,3.04812645 198.414743,3 C199.961065,2.99317277 201.066971,3.06644434 201.732461,3.21665107 C204.885936,3.91517341 208.569856,6.09988753 212.695409,9.79643846 C214.84639,11.74302 216.095857,15.4517828 216.468142,20.9019668 C216.51559,22.1622379 216.564255,23.4225089 216.611703,24.6840012 C216.619003,25.9467147 216.386629,26.8052133 215.912148,27.2594971 C215.43645,27.7162232 214.503304,27.9922128 213.109059,28.0984566 C211.91069,28.2242395 210.712321,28.3536859 209.515168,28.4867959 C208.311933,28.5490768 207.108697,28.6162424 205.906678,28.6870716 C204.893235,28.7078318 204.203413,28.6284543 203.835994,28.4501601 C203.468575,28.271866 203.220385,27.9274896 203.09629,27.4097038 C202.969762,26.8943604 202.83715,25.8697795 202.696023,24.33474 C202.615726,23.4628083 202.536646,22.5908766 202.456349,21.720166 C202.198426,19.7735845 201.363826,18.2324391 199.941599,17.1016144 C198.519372,15.9707898 196.97305,15.4896398 195.311149,15.6630492 C193.649249,15.8340162 192.286636,16.5826075 191.234261,17.8941686 C190.378979,18.8357084 189.889898,19.7882388 189.75972,20.7554236 C189.629542,21.7213872 189.640491,22.8680874 189.790135,24.1881969 C190.636902,31.6704458 191.483668,39.1514736 192.329218,46.6325014 C192.672304,49.6610598 193.014174,52.688397 193.35726,55.7157342 C193.570168,57.5951501 193.796459,58.9433471 194.038566,59.7615463 C194.431534,61.2697196 195.167588,62.5422026 196.243079,63.5851013 C197.316136,64.6292212 198.686049,65.0627447 200.361332,64.8893353 C201.961185,64.7244743 203.279999,63.9429108 204.327508,62.5409814 C205.372583,61.1402731 205.851931,59.4941051 205.753384,57.6049196 C205.576975,55.6864256 205.400565,53.7691527 205.225372,51.8506587 C205.264304,50.6538896 205.469912,49.8234784 205.844631,49.3667523 C206.216916,48.9124685 206.96757,48.6315941 208.090508,48.5338987 C208.906859,48.3946827 210.139294,48.2518032 211.787811,48.1186931 C213.510543,47.9806983 214.786776,47.9196387 215.616509,47.928187 C217.27476,47.9465049 218.155592,48.6950962 218.256571,50.1605277 C218.617907,53.2257219 218.832032,55.2467961 218.898946,56.2249717" id="Fill-7" fill="#FFFFFF"></path>
                <g id="Group-11" transform="translate(226.000000, 0.000000)">
                    <mask id="mask-2" fill="white">
                        <use xlink:href="#path-1"></use>
                    </mask>
                    <g id="Clip-10"></g>
                    <path d="M25.9367816,14.711201 C25.0601431,13.881828 23.630604,13.2716726 21.6481642,12.8856062 C21.052826,12.7918298 20.4574878,12.6980534 19.8621497,12.6067128 C19.3868491,12.545819 18.7927234,12.5251151 18.0809851,12.5409475 C16.5762709,12.5762659 15.5977823,12.9538072 15.1443068,13.6650463 C14.6896187,14.3775032 14.4907685,15.6416576 14.5441186,17.4562916 C14.6423312,19.4804001 14.7405438,21.5032907 14.8387564,23.5273992 C14.932119,26.7401538 15.0109316,28.8154131 15.0788317,29.7568305 C15.1430943,30.6994659 15.1782568,31.206102 15.1794693,31.2755208 C15.2316069,33.0207359 16.218583,34.1082984 18.1379727,34.5491692 C19.0558362,34.6673031 19.7045245,34.7233254 20.0864624,34.7148003 C21.8397394,34.678264 23.3747662,34.1472704 24.6988177,33.1169481 C26.0228692,32.0866257 26.8740452,30.7713205 27.2462831,29.1588538 C27.3190332,28.7386869 27.3917833,28.3197379 27.4657459,27.8995709 C27.4390708,24.7562352 27.4136083,21.6128995 27.3869333,18.4695637 C27.2947832,16.7937675 26.8122076,15.540574 25.9367816,14.711201 M42,71.2340043 C41.997575,71.37406 41.99515,71.5128977 41.992725,71.6529534 C41.98545,72.0719024 41.8350998,72.437265 41.545312,72.7453874 C41.2543116,73.0559455 40.8590362,73.2410626 40.3594856,73.3043921 C39.2888469,73.4286153 37.6119575,73.4761125 35.3312424,73.4651516 C33.3354651,73.4541907 31.8040758,73.4200902 30.7346496,73.3555428 C29.6640109,73.2203587 28.9486351,72.7539125 28.5860972,71.9525507 C28.2211342,71.1524067 27.8173713,69.7408894 27.3675333,67.7192167 C27.1407955,66.7449165 26.3987446,63.9182283 25.0965182,59.2562023 C24.3653798,56.4368213 23.6245415,53.6174404 22.8715781,50.8004952 C22.5514777,49.4084639 22.1610523,48.3525661 21.7003018,47.6254947 C21.2383387,46.9008589 20.4077753,46.548893 19.2134614,46.5769042 C18.0167226,46.6036974 17.1461466,46.9081662 16.6017334,47.4817854 C16.0573203,48.0578403 15.759045,48.7094035 15.7069074,49.446218 C15.6535574,50.1818146 15.6135448,51.4240472 15.5929323,53.1716981 C15.7372199,58.0943494 15.8827201,63.0170007 16.0270078,67.9384342 C16.0367078,68.2891822 16.0755078,69.0369576 16.1470454,70.1890675 C16.2149455,71.3399595 16.0439828,72.2009972 15.6329448,72.7721806 C15.2219069,73.344582 14.5526061,73.6441792 13.6274675,73.675844 C12.8441916,73.7720561 11.6001652,73.851218 9.89053826,73.9218548 C8.1809113,73.9912737 6.89808483,74.016849 6.03963385,73.9888379 C4.89624504,73.9742234 4.18086922,73.6100787 3.8947189,72.8890966 C3.60614357,72.1693324 3.43518087,71.286373 3.38061831,70.2402182 C3.32605574,69.1928456 3.2872557,68.4633384 3.26543068,68.0431714 C2.19115445,47.4294168 1.11687822,26.8156621 0.0426019874,6.20312526 C-0.0956231708,3.55302895 0.102014555,1.96857338 0.642790174,1.45097645 C0.949553025,1.15625066 1.56550373,0.93094376 2.48700478,0.781145117 C3.40850584,0.63256435 4.79803243,0.514430461 6.65437205,0.437704327 C8.50949918,0.360978193 10.3646263,0.291559309 12.2209659,0.231883427 C14.3586059,0.162464544 16.4974583,0.104006537 18.6363108,0.0565094067 C21.6990893,-0.151747243 25.1826058,0.2136153 29.0541227,1.16842941 C32.3618265,1.85043949 35.0960171,3.32772204 37.2385071,5.57835531 C39.3822095,7.83142433 40.4552732,10.4315878 40.4977108,13.3666669 C40.5631859,14.2752017 40.5740984,16.5465389 40.5255983,20.1770247 C40.4637607,24.8585367 40.3716106,28.8056701 40.2552105,32.0159889 C40.2236855,34.3908455 39.0790842,36.853389 36.8674816,39.4206698 C35.7968429,40.7408465 35.2657673,42.1340956 35.2584923,43.6016352 C35.2548548,44.3713323 35.3639799,45.173912 35.5846552,46.013028 C36.7559315,50.0709879 38.7250338,57.2808088 41.3040242,67.6607587 C41.6459496,68.7848574 41.8763249,69.9747214 42,71.2340043" id="Fill-9" fill="#FFFFFF" mask="url(#mask-2)"></path>
                </g>
                <path d="M308.408536,68.7485929 C308.232939,70.7025386 308.031554,72.1264765 307.806839,73.0204067 C307.633697,74.1292709 307.142516,74.7545336 306.332067,74.8949734 C305.520389,75.0366345 304.253141,75.0329708 302.524183,74.8961946 C294.709486,74.2770381 286.884966,73.8203033 279.055534,73.5284326 C277.973707,73.4869113 277.090808,73.4050898 276.408066,73.2780833 C275.725324,73.1510768 275.173973,72.9056124 274.750329,72.5429112 C274.327913,72.1802101 274.087234,71.6660781 274.03566,70.9980729 C273.98163,70.3300677 273.988998,68.8072112 274.057763,66.4258399 C274.637357,46.0510708 275.218179,25.6750804 275.799001,5.30153253 C275.854259,3.34270193 275.993018,2.03233707 276.216505,1.37165917 C276.437537,0.712202488 276.921351,0.305537533 277.661807,0.152885522 C278.402263,0.00145472828 279.875807,-0.0412878346 282.081212,0.041754859 C290.904058,0.375146849 299.720765,0.891721252 308.52642,1.59147807 C311.134593,1.7990848 312.784963,2.1935376 313.475073,2.74308483 C313.999409,3.28164113 314.132028,5.01576796 313.868018,7.94668656 C313.718207,9.61975259 313.573309,10.7676957 313.438234,11.3892947 C313.257725,12.4993801 312.717425,13.1185367 311.819791,13.2516492 C310.919701,13.3847618 309.311082,13.3517889 306.991478,13.1698277 C303.030099,12.8584176 299.066265,12.5848652 295.101203,12.3503918 C293.173316,12.306428 291.833619,12.5689894 291.080883,13.1234215 C290.329376,13.6802961 289.830827,14.7952663 289.585236,16.4646687 C289.469808,17.9325705 289.354381,19.399251 289.240181,20.8671527 C289.171415,22.1958358 289.148084,24.1937453 289.167732,26.85966 C289.10265,28.119955 289.402271,29.1518826 290.061682,29.956664 C290.582334,30.4060715 291.287179,30.7235877 292.172534,30.9140974 C293.057889,31.1058283 294.316541,31.2474894 295.947263,31.3488503 C299.05153,31.5454661 300.952402,31.7201 301.644968,31.838558 C303.042379,31.9399189 303.955976,32.2391169 304.38576,32.7276033 C304.815544,33.2185322 305.018156,34.0941441 304.996053,35.3568815 C304.962898,36.2679087 304.930972,37.1777147 304.896589,38.0887419 C304.82414,38.9973267 304.644858,40.2832672 304.361201,41.9477847 C304.250685,43.3436347 303.351823,44.0470552 301.670755,44.0617098 C300.525074,44.0494976 297.975843,43.8931819 294.021832,43.6526024 C291.740294,43.5133837 290.220088,43.7332026 289.467352,44.2876347 C288.712161,44.8432881 288.241855,46.2073864 288.056434,48.3701601 C287.803475,50.3216634 287.648753,51.8921473 287.588583,53.0803905 C287.559112,54.3761008 287.529642,55.6730323 287.500171,56.9687425 C287.561568,58.6552419 287.910307,59.8300518 288.540247,60.4943934 C289.172643,61.1587349 290.36867,61.5751696 292.133239,61.7485823 C295.745879,61.9622951 299.356062,62.2114232 302.96379,62.4935241 C303.404625,62.5277181 304.194199,62.6083184 305.33374,62.7377673 C306.470825,62.8684374 307.30215,63.1139019 307.826486,63.476603 C308.349594,63.838083 308.613604,64.4071697 308.618516,65.1801995 C308.61606,66.0240598 308.546067,67.2135243 308.408536,68.7485929" id="Fill-12" fill="#FFFFFF"></path>
                <path d="M345.513256,49.0272204 C345.507098,48.0400919 345.484929,47.0322969 345.446748,46.0038354 C345.407335,44.9765896 345.359301,44.1073815 345.312498,43.39378 C345.268159,42.6473552 345.222588,41.9009305 345.177018,41.1545057 C345.159775,40.7290192 345.007051,40.1783182 344.712688,39.501187 C344.477444,38.9735838 344.126425,38.6781746 343.663327,38.6113125 C343.122636,38.5347249 342.660769,38.7170762 342.285118,39.1559351 C341.042389,41.2371716 339.981944,44.3298502 339.096392,48.4327551 C338.971996,48.7670659 338.871001,49.2132188 338.79464,49.7639198 C338.745374,50.111603 339.02742,50.4288943 339.64201,50.7255191 C340.254137,51.0197126 340.974649,51.2275931 341.80724,51.3455137 C342.712498,51.4755909 343.50075,51.4804536 344.175691,51.3698272 C344.846937,51.2567693 345.243526,51.0683396 345.359301,50.8033224 C345.41103,50.2112884 345.462759,49.6192544 345.513256,49.0272204 M358.732489,79.4908336 C358.504635,80.7259599 358.101887,81.5039922 357.52671,81.8261463 C357.020504,82.1616727 354.97967,82.0060662 351.399282,81.4067382 C350.253853,81.2158771 349.107193,81.0286631 347.960533,80.8438804 C346.966596,80.6153334 346.290424,80.2615719 345.925857,79.7801643 C345.548974,79.3680503 345.343289,78.8076239 345.308803,78.0952381 C345.274317,77.3852835 345.276781,75.9738843 345.314962,73.8622559 C345.371617,71.6120404 345.379007,70.3793455 345.339595,70.1605239 C345.430736,68.6226943 345.314962,67.1942756 344.993503,65.8752676 C344.66958,64.5562597 343.697813,63.7405414 342.08436,63.4329755 C341.79246,63.3563879 341.501793,63.2785847 341.209893,63.2019971 C339.06437,62.8932155 337.551911,62.7923145 336.672517,62.8847058 C335.791892,62.9758815 335.098477,63.3563879 334.594734,64.0298722 C334.08976,64.7009251 333.605724,65.922679 333.14509,67.6902712 C332.254611,70.4218941 331.371523,73.1559484 330.497055,75.8912183 C330.00563,77.3755581 329.007998,78.0198662 327.496771,77.8326521 C325.9449,77.67583 324.391797,77.5263019 322.838694,77.3828522 C321.582418,77.2029322 320.32491,77.0266593 319.06617,76.855249 C317.561101,76.6242707 316.877539,75.8523167 317.017946,74.5345244 C317.069675,74.0494699 317.329552,72.9881851 317.80004,71.3555329 C320.704256,61.493973 324.065412,50.3729732 327.963564,38.0107688 C331.860485,25.6509956 335.01842,16.1492757 337.274791,9.47278566 C337.819178,7.78542802 338.491655,6.74359409 339.288529,6.35336224 C340.082939,5.96434607 341.461148,5.89383689 343.414535,6.15520713 C347.118088,6.65241842 350.817946,7.18123728 354.514109,7.74287937 C355.792555,8.07840582 356.653474,8.42608902 357.098098,8.77741925 C357.656032,9.43023701 357.995966,10.9303806 358.108046,13.2790657 C358.802693,34.3297032 359.090897,55.3560272 358.975123,76.345881 C358.96527,77.6199089 358.883981,78.6690369 358.732489,79.4908336" id="Fill-14" fill="#FFFFFF"></path>
                <path d="M418.08187,30.931077 C417.863702,31.7371942 417.496002,32.3251143 416.981222,32.6924129 C416.498309,32.9251565 415.879348,32.980918 415.121886,32.8536363 C414.361973,32.7287791 413.573869,32.5614946 412.753898,32.3517829 C411.935153,32.140859 411.36767,31.9990308 411.056351,31.9202374 C408.478774,31.2692826 406.663562,31.2183699 405.62052,31.7529529 C404.877766,32.0741876 404.349504,32.6257415 404.032057,33.4088268 C403.715835,34.1882755 403.25621,35.7968734 402.655633,38.2285594 C398.946767,53.2574942 395.236675,68.2864289 391.526583,83.3153637 C391.427304,83.7202406 391.21894,84.5639363 390.901493,85.8476628 C390.585271,87.1313894 390.182027,88.0005414 389.697888,88.456331 C389.210073,88.9133328 388.572727,89.0806172 387.780946,88.9642454 C386.846988,88.8127196 385.498755,88.5327 383.733796,88.1266108 C381.967611,87.7229461 380.668404,87.3956504 379.834951,87.1398748 C378.789458,86.8380354 378.198687,86.3192111 378.068766,85.5761286 C377.936394,84.8366827 377.994,83.9760162 378.25139,82.9989778 C378.505103,82.0231517 378.670568,81.3649236 378.745334,81.0255058 C382.226226,65.3722848 385.707119,49.7202759 389.188011,34.0670549 C389.625574,32.0996439 389.865805,30.7443972 389.906252,30.0073757 C389.946699,29.2679298 389.784911,28.6097018 389.419662,28.0326915 C388.974745,27.4399226 388.314111,26.9768598 387.441437,26.649564 C386.565085,26.3222683 385.34187,25.9925482 383.768115,25.6701013 C382.27035,25.3622009 381.371937,25.1464281 381.070423,25.0155098 C379.902363,24.7100338 379.117936,24.3427353 378.712241,23.906341 C378.307771,23.4747955 378.166819,22.7365618 378.293063,21.6989132 C378.478138,20.5655002 378.663214,19.4320872 378.84829,18.2986743 C379.119162,17.1470782 379.39126,15.9954821 379.663358,14.8426739 C379.812889,14.0935303 380.168332,13.5589473 380.732139,13.2461981 C381.105967,13.0364863 381.624424,12.9601173 382.281381,13.0195155 C382.938338,13.081338 383.583039,13.1916488 384.220385,13.3552966 C384.855281,13.5213689 385.453406,13.6595604 386.017212,13.77472 C395.65095,15.7518286 405.247918,17.9531954 414.801987,20.3800326 C416.870912,20.904918 418.244884,21.3352513 418.923903,21.6564859 C419.604148,21.9801451 419.960817,22.4698764 419.996361,23.1244679 C420.03068,23.7814837 419.822316,24.9488385 419.36882,26.6301687 C418.733925,28.9806369 418.303716,30.4134649 418.08187,30.931077" id="Fill-16" fill="#FFFFFF"></path>
                <path d="M434.91865,81.6364175 C438.50036,70.4445485 442.080863,59.2526796 445.662574,48.0608106 C446.044043,46.8686121 446.226328,45.6497317 446.209427,44.4005309 C446.167176,43.2192478 445.748284,42.1713745 444.950336,41.2605495 C444.149974,40.3497244 443.138355,39.7020805 441.920308,39.322469 C440.548949,38.8955577 439.189662,38.8955577 437.855725,39.3248946 C436.519374,39.7530188 435.551214,40.570457 434.946415,41.7675067 C434.750852,42.1446926 434.39594,43.1998428 433.879266,44.9317445 C430.64281,55.7937274 427.405147,66.6569232 424.167484,77.5189061 C423.511983,79.7177421 423.262097,81.2058677 423.416616,81.9772189 C423.540956,83.1051381 423.961055,84.0669014 424.679329,84.8673602 C425.396395,85.6690318 426.278846,86.2329914 427.330301,86.5592389 C428.381757,86.8866994 429.419934,86.9412761 430.45449,86.7229692 C431.484216,86.5034494 432.360631,86.0013434 433.077697,85.2069488 C433.794763,84.4161925 434.410426,83.2264197 434.91865,81.6364175 M444.541101,93.1169368 C444.244134,93.7500269 443.601913,94.4849936 442.620474,95.320624 C439.67012,97.6092084 436.510924,99.0488214 433.128399,99.6503783 C429.743459,100.253148 426.531147,100.07729 423.451624,99.1167391 C420.303293,98.1343579 417.564196,96.4376279 415.200533,94.0059311 C412.834455,91.5742344 411.228902,88.6270908 410.38146,85.1402439 C409.763383,82.7315907 409.893759,79.8826851 410.791902,76.5935273 C414.228751,64.0154092 417.665599,51.4372912 421.10124,38.860386 C422.48105,32.9006066 427.075586,28.6860699 435.069548,26.460552 C436.722181,26.004533 438.283068,25.8868898 439.743758,26.1088352 C442.411631,26.5503004 444.602668,27.0463422 446.312038,27.5811942 C449.188754,28.4823168 451.601911,29.6417692 453.543061,31.0462105 C455.483003,32.4494389 457.084934,34.2140867 458.342818,36.3255999 C461.436826,41.1198628 461.806224,46.7497561 459.569315,53.1825339 C455.833086,64.0663475 452.095649,74.9501612 448.35459,85.8315492 C447.85361,87.278439 446.572789,89.7004332 444.541101,93.1169368" id="Fill-18" fill="#FFFFFF"></path>
                <g id="Group-22" transform="translate(451.000000, 40.000000)">
                    <mask id="mask-4" fill="white">
                        <use xlink:href="#path-3"></use>
                    </mask>
                    <g id="Clip-21"></g>
                    <path d="M43.8555115,22.3996886 C43.3569074,21.2872514 42.249713,20.1493107 40.5327063,18.9992254 C40.0096608,18.6725381 39.4853933,18.3470651 38.9599036,18.0228067 C38.5346237,17.7774876 37.9834706,17.5163806 37.3064445,17.245558 C35.8729577,16.672337 34.8024254,16.6261879 34.0911813,17.0937516 C33.3799372,17.5649586 32.6919124,18.6421768 32.0222187,20.3254061 C31.3121967,22.2187354 30.6021746,24.1108503 29.8909306,26.0041796 C28.7043017,28.9844428 27.9551735,30.917849 27.6435459,31.8068272 C27.3319184,32.6958055 27.1632729,33.1742992 27.1376094,33.2374507 C26.4935791,34.8563141 26.9921832,36.2517184 28.6248672,37.4260927 C29.4436534,37.9045864 30.0351347,38.2167004 30.3980891,38.3624345 C32.0662132,39.0352405 33.7233385,39.1676156 35.3841301,38.7583456 C37.0412555,38.3490756 38.3672002,37.4868152 39.357076,36.1606346 C39.5929353,35.8060149 39.8300167,35.4513951 40.065876,35.0967754 C41.2891669,32.2075961 42.5112358,29.3184168 43.7345267,26.4280231 C44.3101212,24.8553089 44.3528936,23.5133403 43.8555115,22.3996886 M36.6049769,80.6678403 C36.5475397,80.7941432 36.4888804,80.9204461 36.4314432,81.0479635 C36.2579094,81.4293011 35.9707232,81.7025527 35.5747729,81.867718 C35.1763784,82.0328834 34.7278792,82.0438134 34.2304971,81.8980793 C33.1685193,81.5774642 31.5639428,80.9410918 29.4131016,80.0083933 C27.5298935,79.1898532 26.0951847,78.5413363 25.1114192,78.0482692 C24.1545393,77.4920505 23.6644897,76.7755243 23.6388262,75.8950473 C23.6131628,75.0157846 23.7928069,73.5608722 24.1692041,71.525452 C24.3427379,70.5417466 24.7619075,67.6549962 25.3839406,62.8591286 C25.8128867,59.9820939 26.2320564,57.1002013 26.6402274,54.2170943 C26.8907515,52.8156176 26.9433005,51.6861781 26.7954301,50.8372767 C26.6487819,49.9883754 26.0035295,49.3313573 24.8670054,48.8747237 C23.7280373,48.4193045 22.7858222,48.3464374 22.0464705,48.6536936 C21.3046747,48.9609497 20.7632982,49.438229 20.422341,50.0928182 C20.0801617,50.7449784 19.5510059,51.8671313 18.8373176,53.4592768 C17.0201012,58.0256131 15.2028848,62.5919494 13.3856684,67.1582857 C13.2561291,67.4825442 12.9958284,68.1857114 12.6059885,69.2677873 C12.2137044,70.3486489 11.7114341,71.0700329 11.0955114,71.4270815 C10.4808107,71.7853446 9.7316825,71.7914168 8.84812671,71.4489416 C8.07211297,71.2230537 6.86959721,70.7955669 5.23324699,70.1737679 C3.59445264,69.5519689 2.37849411,69.0589018 1.58170521,68.6897086 C0.512394948,68.219716 -0.015538804,67.597917 -1.77636768e-14,66.8243116 C0.0150129177,66.0482774 0.204433592,65.1726581 0.568610116,64.1913815 C0.932786639,63.2113195 1.18697696,62.526369 1.33240316,62.1328869 C4.41323878,53.8333277 7.4940744,45.5337686 10.57491,37.2342094 C9.39194735,35.9833247 8.20165227,34.7372978 7.00524685,33.4949143 C6.56285792,32.8913321 6.44920551,32.2974655 6.6618455,31.7060278 C6.87326341,31.1158045 7.33153924,30.7623992 8.03789504,30.643383 C9.77689905,30.4138518 11.5195693,30.1928216 13.2671277,29.9790782 C16.4579496,21.3856219 19.6475493,12.7921656 22.8371491,4.19749482 C23.758589,1.71515667 24.5737089,0.344041324 25.2873971,0.0853632294 C25.693124,-0.0603709084 26.3603736,-0.0202940205 27.2879239,0.211666149 C28.2142521,0.443626318 29.5670823,0.892973243 31.3451925,1.56820808 C33.1220807,2.24222847 34.8965247,2.92475001 36.6685245,3.61455827 C38.7106016,4.41002377 40.7490125,5.21763378 42.7849792,6.03495941 C45.7546066,7.07817294 48.8977677,8.81605254 52.1741343,11.2558849 C55.0276651,13.216009 57.0257477,15.6740582 58.1573835,18.6033143 C59.2902414,21.5362139 59.2743545,24.3537405 58.148829,27.0583232 C57.8506442,27.9181546 56.958534,30.0009384 55.4724982,33.3078888 C53.5562942,37.5693979 51.9040571,41.1483855 50.518231,44.0399936 C49.5466863,46.2041456 47.4862781,47.9942466 44.3761129,49.4491591 C42.8399723,50.2239789 41.7841048,51.2866236 41.1950676,52.6273777 C40.8858842,53.3317594 40.6720221,54.1090081 40.546149,54.9676251 C40.0426567,59.158696 39.0430043,66.5583468 37.3651038,77.1119273 C37.2416748,78.2802293 36.9874845,79.4643192 36.6049769,80.6678403" id="Fill-20" fill="#FFFFFF" mask="url(#mask-4)"></path>
                </g>
            </g>
        </g>
    </g>
</svg>