<?xml version="1.0" encoding="UTF-8"?>
<svg width="540px" height="112px" viewBox="0 0 540 112" version="1.1" xmlns="http://www.w3.org/2000/svg" xmlns:xlink="http://www.w3.org/1999/xlink">
    <title>Group 24</title>
    <defs>
        <polygon id="path-1" points="0 0 63.7748621 0 63.7748621 73.5406224 0 73.5406224"></polygon>
    </defs>
    <g id="Page-1" stroke="none" stroke-width="1" fill="none" fill-rule="evenodd">
        <g id="Home" transform="translate(-450.000000, -1677.000000)">
            <g id="Group-24" transform="translate(450.000000, 1677.000000)">
                <g id="Group-3" transform="translate(0.000000, 37.779051)">
                    <mask id="mask-2" fill="white">
                        <use xlink:href="#path-1"></use>
                    </mask>
                    <g id="Clip-2"></g>
                    <path d="M56.064,17.7221224 C57.054,23.3351224 57.606,26.5381224 57.682,27.3461224 C57.732,27.5851224 57.782,27.8231224 57.832,28.0621224 C59.089,28.2221224 60.343,28.3861224 61.595,28.5531224 C62.214,28.7201224 62.605,29.0321224 62.764,29.4871224 C62.944,30.0001224 62.844,30.5151224 62.468,31.0331224 C61.278,32.3171224 60.095,33.6051224 58.919,34.8961224 C59.011,35.4411224 59.103,35.9861224 59.195,36.5311224 C60.651,45.0021224 62.052,52.4671224 63.359,58.9411224 C63.442,59.1691224 63.474,59.3481224 63.457,59.4841224 C63.52,59.6541224 63.582,59.8231224 63.645,59.9931224 C63.844,61.0791224 63.814,61.8641224 63.557,62.3451224 C63.298,62.8271224 62.681,63.2811224 61.703,63.7131224 C59.114,64.6821224 57.137,65.4081224 55.767,65.8731224 C54.514,66.2941224 53.57,65.9491224 52.931,64.8361224 C52.051,63.1041224 50.795,60.9351224 49.154,58.3331224 C48.622,57.5031224 48.089,56.6741224 47.555,55.8461224 C46.295,53.8751224 45.497,52.5631224 45.171,51.9141224 C44.219,50.2121224 43.285,48.8251224 42.37,47.7591224 C42.054,47.4941224 41.714,47.4361224 41.35,47.5811224 C41.046,47.7021224 40.799,47.9641224 40.609,48.3661224 C40.418,48.7691224 40.454,49.7311224 40.717,51.2531224 C42.244,57.4791224 43.419,62.3181224 44.211,65.7791224 C44.637,67.4981224 44.787,68.6611224 44.661,69.2661224 C44.534,69.8741224 44.152,70.3561224 43.518,70.7161224 C42.882,71.0761224 41.254,71.7961224 38.64,72.9001224 C37.595,73.3431224 36.709,73.5561224 35.98,73.5401224 C35.252,73.5221224 34.633,73.1641224 34.124,72.4621224 C32.796,70.5011224 31.464,68.5421224 30.127,66.5861224 C28.354,63.8631224 26.573,61.1451224 24.784,58.4321224 C23.043,55.8291224 21.295,53.2301224 19.54,50.6361224 C17.789,50.5151224 16.034,50.4021224 14.275,50.2981224 C13.665,50.2401224 13.237,49.9361224 12.989,49.3841224 C12.765,48.8891224 12.834,48.3951224 13.198,47.8991224 C13.998,46.9111224 14.802,45.9241224 15.609,44.9391224 C11.948,39.5541224 8.255,34.1881224 4.53,28.8391224 C3.497,27.3811224 2.462,25.9251224 1.425,24.4701224 C0.862,23.7301224 0.469,23.1131224 0.245,22.6171224 C-0.129,21.7901224 -0.075,21.1051224 0.407,20.5551224 C0.889,20.0071224 1.911,19.4161224 3.47,18.7901224 C3.982,18.5641224 4.493,18.3371224 5.006,18.1121224 C5.018,18.1401224 5.03,18.1681224 5.042,18.1951224 C6.118,17.6891224 7.195,17.1851224 8.273,16.6841224 C9.236,16.2671224 9.958,16.0891224 10.438,16.1441224 C10.918,16.2021224 11.4,16.6201224 11.886,17.3971224 C13.632,19.9691224 15.37,22.5461224 17.101,25.1261224 C18.818,27.9411224 20.353,30.3421224 21.708,32.3291224 C22.272,33.1401224 22.899,33.4991224 23.592,33.4041224 C23.654,33.3781224 23.716,33.3521224 23.779,33.3251224 C24.09,33.1951224 24.306,32.9251224 24.428,32.5141224 C24.548,32.1041224 24.548,31.6611224 24.424,31.1891224 C24.185,29.9121224 23.871,28.5391224 23.48,27.0651224 C23.09,25.5931224 22.783,24.4091224 22.563,23.5201224 C22.325,22.4091224 22.087,21.2971224 21.851,20.1851224 C21.176,17.6541224 20.699,15.4961224 20.417,13.7161224 C20.128,12.4641224 20.66,11.5581224 22.017,11.0051224 C22.639,10.6871224 23.727,10.2121224 25.279,9.5891224 C26.961,8.9141224 28.268,8.4331224 29.198,8.1301224 C30.451,7.7031224 31.635,8.1491224 32.744,9.4691224 C33.851,10.7881224 34.577,11.9031224 34.926,12.8031224 C36.9,16.0891224 38.863,19.3801224 40.816,22.6761224 C40.989,23.1281224 41.428,23.7041224 42.13,24.4051224 C42.557,24.9561224 43.084,25.1081224 43.713,24.8691224 C44.342,24.6291224 44.614,24.1071224 44.525,23.3001224 C43.984,20.3411224 43.202,16.4371224 42.195,11.5881224 C41.816,9.7941224 41.547,8.1861224 41.387,6.7621224 C41.16,5.3651224 41.201,4.4301224 41.51,3.9591224 C41.817,3.4931224 42.744,2.9381224 44.29,2.3091224 C47.032,1.3081224 49.005,0.639122399 50.203,0.277122399 C51.119,-0.0478776014 51.822,-0.0858776014 52.313,0.157122399 C52.802,0.402122399 53.131,0.975122399 53.301,1.8761224 C53.341,1.9911224 53.516,3.0181224 53.833,4.9561224 C54.031,6.0391224 54.23,7.1221224 54.429,8.2051224 C54.82,10.7581224 55.363,13.9321224 56.064,17.7221224" id="Fill-1" fill="#FFFFFF" mask="url(#mask-2)"></path>
                </g>
                <path d="M111.0017,83.8602736 C110.9817,84.4932736 110.6807,84.9842736 110.0977,85.3342736 C109.5157,85.6852736 108.3227,86.1122736 106.5227,86.6262736 C104.7227,87.1412736 103.5457,87.4552736 102.9887,87.5542736 C101.9517,87.7952736 101.2697,87.6342736 100.9407,87.0702736 C100.6097,86.5072736 100.1967,85.3842736 99.6977,83.7042736 C98.1747,78.6722736 96.6497,73.6412736 95.1247,68.6092736 C94.6437,66.9882736 94.1657,65.8372736 93.6937,65.1572736 C92.8627,63.9572736 91.0677,63.7612736 88.3207,64.6012736 C87.0717,64.9842736 86.1777,65.2912736 85.6347,65.5242736 C84.8417,65.8342736 84.3267,66.2652736 84.0897,66.8142736 C83.8517,67.3642736 83.8367,68.0202736 84.0417,68.7772736 C84.2457,69.5382736 84.4767,70.3202736 84.7317,71.1262736 C86.3857,76.3702736 88.0407,81.6152736 89.6957,86.8592736 C90.1867,88.4162736 90.4027,89.5202736 90.3467,90.1712736 C90.2887,90.8232736 89.9067,91.3242736 89.1987,91.6762736 C88.4897,92.0302736 87.0037,92.5682736 84.7437,93.3082736 C83.6727,93.6592736 82.8417,93.8882736 82.2487,93.9902736 C81.6537,94.0912736 81.2007,94.0682736 80.8867,93.9182736 C80.4737,93.6752736 80.1357,93.2622736 79.8757,92.6812736 C79.6127,92.1002736 79.1937,90.9482736 78.6157,89.2312736 C72.9427,72.3632736 67.2687,55.4952736 61.5947,38.6272736 C60.8827,36.5102736 60.6877,35.1722736 61.0127,34.6162736 C61.3377,34.0642736 63.0797,33.2512736 66.2437,32.2202736 C68.0237,31.6412736 69.1547,31.3122736 69.6347,31.2212736 C70.7087,30.9422736 71.4577,31.0702736 71.8807,31.6012736 C72.3017,32.1322736 72.6397,32.8042736 72.8947,33.6102736 C73.1497,34.4172736 73.3217,34.9632736 73.4127,35.2522736 C74.9217,40.0352736 76.4307,44.8182736 77.9397,49.6022736 C78.0677,50.0062736 78.2817,50.6832736 78.5817,51.6342736 C78.8817,52.5842736 79.1757,53.2992736 79.4677,53.7772736 C79.7577,54.2562736 80.1067,54.5902736 80.5157,54.7782736 C81.2507,55.1172736 82.6617,54.9582736 84.7577,54.3152736 C86.0907,53.9062736 87.0577,53.5532736 87.6597,53.2442736 C88.8957,52.7472736 89.5127,52.0272736 89.5107,51.0822736 C89.5067,50.1372736 89.2417,48.7662736 88.7087,46.9702736 C87.9437,44.3922736 87.1797,41.8142736 86.4157,39.2352736 C85.2297,35.2382736 84.4977,32.6512736 84.2207,31.4722736 C83.5857,29.3292736 83.4387,27.9852736 83.7837,27.4422736 C84.1267,26.9022736 85.8577,26.1662736 88.9827,25.2712736 C90.7777,24.7582736 91.9167,24.4712736 92.3997,24.3982736 C93.4797,24.1602736 94.2177,24.3012736 94.6127,24.8172736 C95.0057,25.3362736 95.3027,25.9592736 95.5037,26.6872736 C95.7047,27.4162736 95.8457,27.9252736 95.9257,28.2152736 C100.7277,45.6032736 105.5297,62.9902736 110.3317,80.3772736 C110.7977,82.0672736 111.0217,83.2292736 111.0017,83.8602736" id="Fill-4" fill="#FFFFFF"></path>
                <path d="M133.1954,52.0394736 C132.8814,51.2424736 132.5484,50.4354736 132.1974,49.6154736 C131.8444,48.7994736 131.5374,48.1094736 131.2754,47.5474736 C131.0074,46.9574736 130.7394,46.3684736 130.4694,45.7784736 C130.3254,45.4404736 130.0324,45.0424736 129.5904,44.5854736 C129.2394,44.2334736 128.8704,44.0984736 128.4844,44.1874736 C128.0344,44.2904736 127.7284,44.5804736 127.5674,45.0504736 C127.2344,47.1144736 127.3564,49.9394736 127.9334,53.5284736 C127.9384,53.8384736 127.9964,54.2284736 128.1074,54.6984736 C128.1764,54.9934736 128.4994,55.1654736 129.0774,55.2154736 C129.6544,55.2674736 130.2904,55.2134736 130.9864,55.0524736 C131.7434,54.8784736 132.3704,54.6414736 132.8674,54.3434736 C133.3644,54.0454736 133.6184,53.7714736 133.6284,53.5214736 C133.4844,53.0274736 133.3404,52.5334736 133.1954,52.0394736 M153.2684,72.5194736 C153.4804,73.5864736 153.4074,74.3414736 153.0534,74.7814736 C152.7584,75.2114736 151.0874,75.7254736 148.0464,76.3604736 C147.0734,76.5644736 146.1004,76.7704736 145.1274,76.9794736 C144.2634,77.1044736 143.6114,77.0284736 143.1694,76.7534736 C142.7404,76.5374736 142.3994,76.1484736 142.1484,75.5844736 C141.8964,75.0214736 141.4544,73.8814736 140.8204,72.1634736 C140.1594,70.3314736 139.7764,69.3314736 139.6764,69.1684736 C139.2654,67.8974736 138.7264,66.7784736 138.0574,65.8134736 C137.3874,64.8484736 136.3594,64.4884736 134.9804,64.7384736 C134.7254,64.7654736 134.4704,64.7934736 134.2154,64.8204736 C132.4134,65.2324736 131.1774,65.6154736 130.5064,65.9604736 C129.8354,66.3044736 129.4014,66.8254736 129.2094,67.5244736 C129.0164,68.2224736 129.0104,69.3574736 129.1924,70.9304736 C129.3314,73.4134736 129.4764,75.8954736 129.6264,78.3774736 C129.6954,79.7294736 129.0964,80.5564736 127.8264,80.8684736 C126.5334,81.2184736 125.2414,81.5714736 123.9504,81.9304736 C122.8864,82.1684736 121.8224,82.4094736 120.7594,82.6534736 C119.4774,82.9244736 118.6914,82.5074736 118.3994,81.3964736 C118.2924,80.9894736 118.1744,80.0494736 118.0494,78.5824736 C117.3484,69.7094736 116.6094,59.6804736 115.8904,48.4854736 C115.1714,37.2934736 114.7234,28.6434736 114.4334,22.5554736 C114.3404,21.0254736 114.5464,19.9764736 115.0494,19.4204736 C115.5524,18.8634736 116.6084,18.3894736 118.2174,18.0094736 C121.2674,17.2864736 124.3224,16.5864736 127.3804,15.9084736 C128.4804,15.7884736 129.2594,15.8044736 129.7144,15.9514736 C130.3554,16.3084736 131.0884,17.4154736 131.9104,19.2774736 C139.0324,36.0704736 145.8834,52.9494736 152.4614,69.9074736 C152.8594,70.9384736 153.1274,71.8084736 153.2684,72.5194736" id="Fill-6" fill="#FFFFFF"></path>
                <path d="M184.757,14.0603736 C184.852,14.7793736 184.758,15.3723736 184.479,15.8343736 C184.184,16.1793736 183.723,16.4233736 183.096,16.5683736 C182.467,16.7133736 181.803,16.8363736 181.101,16.9323736 C180.399,17.0293736 179.913,17.0973736 179.647,17.1353736 C177.441,17.4453736 176.017,17.9913736 175.382,18.7563736 C174.909,19.2533736 174.678,19.8693736 174.685,20.6003736 C174.692,21.3323736 174.857,22.7743736 175.178,24.9263736 C177.163,38.2243736 179.148,51.5223736 181.134,64.8203736 C181.187,65.1783736 181.299,65.9273736 181.468,67.0623736 C181.638,68.1973736 181.604,69.0273736 181.369,69.5513736 C181.133,70.0773736 180.683,70.4193736 180.019,70.5803736 C179.231,70.7593736 178.07,70.9703736 176.54,71.2143736 C175.009,71.4573736 173.872,71.6123736 173.128,71.6743736 C172.2,71.7663736 171.563,71.5353736 171.219,70.9803736 C170.873,70.4263736 170.642,69.7153736 170.528,68.8443736 C170.413,67.9773736 170.331,67.3913736 170.281,67.0933736 C167.97,53.3573736 165.659,39.6213736 163.347,25.8853736 C163.057,24.1573736 162.809,22.9903736 162.604,22.3803736 C162.399,21.7713736 162.062,21.2913736 161.592,20.9433736 C161.055,20.6063736 160.392,20.4413736 159.607,20.4543736 C158.82,20.4683736 157.761,20.5913736 156.43,20.8273736 C155.165,21.0533736 154.394,21.1633736 154.118,21.1513736 C153.109,21.2733736 152.378,21.2243736 151.924,20.9993736 C151.47,20.7773736 151.124,20.2263736 150.893,19.3473736 C150.677,18.3733736 150.461,17.3993736 150.245,16.4253736 C150.091,15.4093736 149.936,14.3933736 149.782,13.3763736 C149.661,12.7243736 149.769,12.1803736 150.108,11.7493736 C150.333,11.4613736 150.711,11.2393736 151.242,11.0793736 C151.771,10.9223736 152.309,10.8073736 152.856,10.7393736 C153.402,10.6723736 153.913,10.5963736 154.386,10.5113736 C162.504,9.06637361 170.642,7.77437361 178.796,6.63737361 C180.562,6.39137361 181.761,6.29137361 182.388,6.32837361 C183.016,6.36837361 183.45,6.64437361 183.692,7.16137361 C183.932,7.67737361 184.151,8.68637361 184.348,10.1833736 C184.625,12.2803736 184.76,13.5743736 184.757,14.0603736" id="Fill-8" fill="#FFFFFF"></path>
                <path d="M249.8781,8.79677361 C249.9001,9.52277361 249.7481,10.1017736 249.4251,10.5337736 C249.0971,10.8477736 248.6151,11.0447736 247.9771,11.1247736 C247.3381,11.2067736 246.6671,11.2597736 245.9601,11.2867736 C245.2531,11.3127736 244.7651,11.3307736 244.4961,11.3407736 C242.2741,11.4277736 240.8071,11.8277736 240.0991,12.5247736 C239.5791,12.9717736 239.2881,13.5587736 239.2221,14.2887736 C239.1551,15.0177736 239.1741,16.4687736 239.2771,18.6427736 C239.9131,32.0727736 240.5491,45.5027736 241.1851,58.9337736 C241.2031,59.2947736 241.2381,60.0507736 241.2931,61.1977736 C241.3471,62.3437736 241.2301,63.1657736 240.9451,63.6637736 C240.6581,64.1627736 240.1771,64.4577736 239.5011,64.5517736 C238.7001,64.6507736 237.5281,64.7447736 235.9851,64.8317736 C234.4411,64.9187736 233.2971,64.9577736 232.5521,64.9447736 C231.6221,64.9427736 231.0131,64.6497736 230.7281,64.0617736 C230.4411,63.4767736 230.2831,62.7447736 230.2571,61.8677736 C230.2291,60.9907736 230.2071,60.4037736 230.1871,60.1007736 C229.2711,46.2017736 228.3551,32.3027736 227.4401,18.4037736 C227.3251,16.6567736 227.1961,15.4687736 227.0541,14.8417736 C226.9111,14.2147736 226.6251,13.7037736 226.1941,13.3097736 C225.6951,12.9197736 225.0541,12.6907736 224.2741,12.6227736 C223.4921,12.5567736 222.4281,12.5727736 221.0851,12.6737736 C219.8071,12.7697736 219.0321,12.8007736 218.7591,12.7617736 C217.7461,12.7797736 217.0261,12.6587736 216.5981,12.3897736 C216.1701,12.1217736 215.8831,11.5397736 215.7411,10.6417736 C215.6241,9.65077361 215.5081,8.65977361 215.3911,7.66877361 C215.3401,6.64277361 215.2881,5.61577361 215.2371,4.58877361 C215.1821,3.92677361 215.3441,3.39777361 215.7241,3.00277361 C215.9761,2.73977361 216.3731,2.55577361 216.9161,2.45077361 C217.4571,2.34777361 218.0011,2.28877361 218.5511,2.27577361 C219.1001,2.26477361 219.6131,2.23977361 220.0911,2.20377361 C228.2881,1.58577361 236.4941,1.12077361 244.7051,0.810773615 C246.4831,0.743773615 247.6841,0.766773615 248.3031,0.865773615 C248.9231,0.966773615 249.3261,1.28877361 249.5131,1.82477361 C249.7001,2.36377361 249.8171,3.38877361 249.8621,4.89777361 C249.9261,7.01177361 249.9301,8.31277361 249.8781,8.79677361" id="Fill-10" fill="#FFFFFF"></path>
                <path d="M290.7413,62.7223736 C290.5343,63.3203736 290.1023,63.6973736 289.4473,63.8573736 C288.7913,64.0153736 287.5373,64.0643736 285.6823,64.0133736 C283.8283,63.9633736 282.6233,63.9093736 282.0673,63.8353736 C281.0173,63.7533736 280.4203,63.3953736 280.2783,62.7583736 C280.1343,62.1193736 280.0783,60.9273736 280.1093,59.1733736 C280.1713,53.9163736 280.2323,48.6593736 280.2933,43.4023736 C280.3233,41.7113736 280.2163,40.4703736 279.9723,39.6793736 C279.5453,38.2843736 277.9093,37.5583736 275.0673,37.5313736 C273.7753,37.5203736 272.8393,37.5453736 272.2583,37.6023736 C271.4183,37.6603736 270.8043,37.9153736 270.4173,38.3683736 C270.0293,38.8203736 269.8193,39.4413736 269.7873,40.2253736 C269.7543,41.0123736 269.7383,41.8273736 269.7383,42.6733736 C269.7353,48.1723736 269.7333,53.6713736 269.7313,59.1703736 C269.7303,60.8013736 269.6043,61.9213736 269.3583,62.5243736 C269.1103,63.1293736 268.5993,63.4913736 267.8273,63.6133736 C267.0533,63.7383736 265.4933,63.8023736 263.1443,63.8273736 C262.0313,63.8393736 261.1803,63.8063736 260.5913,63.7243736 C260.0013,63.6423736 259.5813,63.4833736 259.3303,63.2453736 C259.0133,62.8873736 258.8183,62.3923736 258.7463,61.7603736 C258.6723,61.1263736 258.6193,59.9043736 258.5863,58.0913736 C258.2623,40.2973736 257.9383,22.5043736 257.6133,4.71037361 C257.5723,2.47737361 257.7863,1.14237361 258.2583,0.710373615 C258.7293,0.280373615 260.6103,0.033373615 263.8993,0.00437361499 C265.7473,-0.011626385 266.9123,0.017373615 267.3913,0.073373615 C268.4863,0.132373615 269.1553,0.478373615 269.3953,1.11337361 C269.6343,1.74737361 269.7533,2.48737361 269.7533,3.33437361 C269.7533,4.18137361 269.7523,4.75437361 269.7523,5.05537361 C269.7503,10.0713736 269.7483,15.0873736 269.7463,20.1023736 C269.7463,20.5263736 269.7463,21.2363736 269.7463,22.2333736 C269.7453,23.2313736 269.8103,24.0003736 269.9433,24.5443736 C270.0733,25.0883736 270.3033,25.5123736 270.6333,25.8143736 C271.2243,26.3593736 272.6033,26.6333736 274.7713,26.6503736 C276.1513,26.6633736 277.1703,26.6163736 277.8293,26.5033736 C279.1443,26.3993736 279.9423,25.9003736 280.2223,24.9983736 C280.5003,24.0963736 280.6573,22.7093736 280.6903,20.8353736 C280.7373,18.1463736 280.7853,15.4583736 280.8323,12.7693736 C280.9053,8.60037361 280.9863,5.91437361 281.0763,4.70537361 C281.1163,2.47237361 281.3783,1.14537361 281.8663,0.730373615 C282.3513,0.318373615 284.2053,0.138373615 287.4243,0.225373615 C289.2733,0.275373615 290.4353,0.345373615 290.9133,0.419373615 C292.0063,0.516373615 292.6613,0.873373615 292.8803,1.48437361 C293.0973,2.09737361 293.1933,2.78137361 293.1653,3.53537361 C293.1383,4.29037361 293.1193,4.81937361 293.1083,5.12037361 C292.4553,23.1463736 291.8023,41.1733736 291.1483,59.1993736 C291.0853,60.9513736 290.9493,62.1263736 290.7413,62.7223736" id="Fill-12" fill="#FFFFFF"></path>
                <path d="M327.8181,60.9284736 C327.6531,62.6134736 327.4701,63.8414736 327.2711,64.6094736 C327.1141,65.5664736 326.6891,66.1004736 325.9941,66.2164736 C325.2971,66.3324736 324.2111,66.3194736 322.7321,66.1864736 C316.0431,65.5834736 309.3461,65.0954736 302.6451,64.7194736 C301.7191,64.6674736 300.9641,64.5824736 300.3821,64.4614736 C299.7991,64.3404736 299.3311,64.1214736 298.9751,63.7994736 C298.6181,63.4804736 298.4231,63.0324736 298.3891,62.4554736 C298.3551,61.8774736 298.3881,60.5644736 298.4871,58.5124736 C299.3381,40.9474736 300.1891,23.3834736 301.0401,5.81947361 C301.1221,4.13047361 301.2621,3.00247361 301.4611,2.43747361 C301.6591,1.87247361 302.0711,1.52847361 302.6941,1.40947361 C303.3161,1.28947361 304.5511,1.27747361 306.3971,1.38047361 C313.7821,1.79547361 321.1611,2.33647361 328.5311,3.00147361 C330.7151,3.19847361 332.0941,3.54647361 332.6671,4.02547361 C333.1021,4.49347361 333.1961,5.98947361 332.9491,8.51547361 C332.8071,9.95847361 332.6751,10.9484736 332.5561,11.4824736 C332.3941,12.4374736 331.9351,12.9704736 331.1801,13.0794736 C330.4221,13.1884736 329.0711,13.1514736 327.1221,12.9774736 C323.7961,12.6794736 320.4681,12.4074736 317.1381,12.1614736 C315.5191,12.1034736 314.3891,12.3134736 313.7491,12.7824736 C313.1091,13.2534736 312.6731,14.2094736 312.4431,15.6474736 C312.3251,16.9104736 312.2071,18.1744736 312.0891,19.4384736 C312.0121,20.5864736 311.9631,22.3074736 311.9431,24.6074736 C311.8701,25.6934736 312.1071,26.5884736 312.6531,27.2904736 C313.0871,27.6834736 313.6771,27.9674736 314.4231,28.1404736 C315.1681,28.3164736 316.2301,28.4534736 317.6071,28.5584736 C320.2291,28.7594736 321.8321,28.9274736 322.4171,29.0364736 C323.5971,29.1354736 324.3651,29.4004736 324.7231,29.8264736 C325.0821,30.2524736 325.2441,31.0104736 325.2131,32.0984736 C325.1761,32.8844736 325.1391,33.6704736 325.1011,34.4554736 C325.0321,35.2384736 324.8671,36.3454736 324.6091,37.7784736 C324.5011,38.9824736 323.7331,39.5814736 322.3061,39.5794736 C321.3351,39.5574736 319.1741,39.4024736 315.8241,39.1504736 C313.8901,39.0054736 312.5981,39.1754736 311.9511,39.6444736 C311.3031,40.1154736 310.8851,41.2834736 310.6981,43.1474736 C310.4551,44.8264736 310.3021,46.1794736 310.2331,47.2044736 C310.1901,48.3224736 310.1481,49.4394736 310.1051,50.5574736 C310.1341,52.0134736 310.4141,53.0304736 310.9431,53.6124736 C311.4721,54.1944736 312.4881,54.5674736 313.9911,54.7374736 C317.0691,54.9654736 320.1461,55.2164736 323.2221,55.4914736 C323.5981,55.5244736 324.2711,55.6014736 325.2421,55.7214736 C326.2101,55.8434736 326.9181,56.0594736 327.3621,56.3764736 C327.8071,56.6924736 328.0261,57.1834736 328.0241,57.8524736 C328.0151,58.5804736 327.9481,59.6074736 327.8181,60.9284736" id="Fill-14" fill="#FFFFFF"></path>
                <path d="M381.4417,10.6909736 C381.6037,10.9649736 381.6477,11.3109736 381.5757,11.7259736 C381.4727,12.3229736 381.1397,13.0319736 380.5827,13.8539736 C379.7007,15.3589736 377.5727,18.8239736 374.2877,24.2799736 C369.1287,32.8589736 365.4657,39.4779736 363.1227,44.0729736 C362.8397,44.6399736 362.5937,45.6119736 362.3847,46.9859736 C361.9837,50.0419736 361.4327,53.8699736 360.7317,58.4699736 C360.1757,62.1149736 359.7787,64.5009736 359.5447,65.6239736 C359.2627,67.4769736 359.0007,68.6749736 358.7617,69.2189736 C358.5217,69.7639736 358.0997,70.0659736 357.4947,70.1279736 C356.8887,70.1899736 355.6667,70.0819736 353.8267,69.8179736 C352.7227,69.6589736 351.6177,69.5039736 350.5117,69.3519736 C349.6597,69.1739736 349.0877,68.8979736 348.7947,68.5229736 C348.5017,68.1489736 348.3477,67.5339736 348.3377,66.6779736 C348.3697,66.4389736 348.4197,65.9439736 348.4897,65.1889736 C348.5577,64.4359736 348.6997,63.2529736 348.9157,61.6339736 C349.5117,57.1719736 350.1077,52.7089736 350.7027,48.2469736 C351.1177,46.1079736 351.1527,44.1619736 350.7967,42.4069736 C350.1487,38.9089736 349.2627,34.8629736 348.1097,30.2709736 C346.4287,23.2699736 344.6657,16.2729736 342.8207,9.28297361 C342.5977,8.22397361 342.3737,7.16497361 342.1477,6.10597361 C342.1577,6.01597361 342.1677,5.92597361 342.1777,5.83697361 C342.2117,5.53597361 342.3617,5.26397361 342.6317,5.01997361 C342.8987,4.77697361 343.2077,4.64497361 343.5557,4.62297361 C345.3457,4.64397361 347.0607,4.75497361 348.6947,4.95297361 C350.3957,5.15997361 352.0187,5.45497361 353.5607,5.83697361 C354.4897,6.13997361 355.0827,6.88997361 355.3397,8.08097361 C355.8017,9.78697361 356.3117,11.8989736 356.8587,14.4109736 C357.0917,16.2129736 357.5157,18.3449736 358.1227,20.8079736 C358.4707,22.6859736 359.0377,23.6819736 359.8317,23.7949736 C360.4927,23.8899736 360.9757,23.5919736 361.2787,22.9039736 C362.0617,21.4609736 362.8497,20.0179736 363.6417,18.5769736 C366.2957,13.5329736 367.9747,10.5189736 368.6117,9.51697361 C369.1637,8.62297361 370.0257,8.20597361 371.1997,8.26697361 C375.6077,8.95897361 378.5467,9.49197361 380.0277,9.80497361 C380.6367,9.90897361 381.1087,10.2049736 381.4417,10.6909736" id="Fill-16" fill="#FFFFFF"></path>
                <path d="M435.1457,70.9901736 C434.8337,72.0951736 434.4367,73.1431736 433.9567,74.1391736 C432.8167,76.7691736 430.8817,78.9541736 428.1807,80.7151736 C426.6757,81.6791736 425.3967,82.3341736 424.3327,82.6721736 C423.2697,83.0121736 422.2797,83.1531736 421.3587,83.0971736 C420.4387,83.0431736 419.0967,82.8131736 417.3317,82.4201736 C416.3657,82.1721736 415.6027,82.0101736 415.0447,81.9301736 C411.6187,81.2491736 408.7957,79.8491736 406.5447,77.7011736 C405.1397,76.3141736 404.2117,75.0461736 403.7707,73.8891736 C402.3607,70.2161736 401.7227,66.8241736 401.8977,63.7051736 C401.8997,63.3961736 401.9817,62.8881736 402.1397,62.1801736 C402.4547,60.7651736 403.1567,60.1161736 404.2487,60.2381736 C407.6707,60.5181736 409.8227,60.7801736 410.6987,60.9871736 C411.6507,61.1521736 412.2897,61.4451736 412.6187,61.8641736 C412.9467,62.2861736 413.1527,63.0051736 413.2377,64.0191736 C413.2087,64.1371736 413.2037,64.2901736 413.2237,64.4821736 C413.2427,64.6731736 413.2477,64.9241736 413.2387,65.2321736 C413.2577,66.2331736 413.3687,67.1301736 413.5667,67.9241736 C414.3017,70.2821736 415.5187,71.6721736 417.2387,72.1061736 C418.5887,72.4471736 419.9387,72.2191736 421.2967,71.4151736 C422.6527,70.6121736 423.5197,69.5121736 423.8877,68.1091736 C424.4697,66.1381736 424.5867,64.5611736 424.2307,63.3741736 C423.8727,62.1891736 422.9787,60.5041736 421.5237,58.3251736 C420.9717,57.4671736 420.4177,56.6111736 419.8597,55.7551736 C417.6727,52.4351736 415.4437,49.1271736 413.1747,45.8311736 C409.9257,40.6631736 408.8317,35.4121736 410.0337,30.0441736 C410.8797,26.2711736 412.7067,23.2861736 415.5587,21.1201736 C418.4077,18.9541736 421.7157,17.9121736 425.4587,18.0161736 C427.5187,18.0221736 429.6237,18.2961736 431.7697,18.8411736 C436.5957,20.0701736 440.0217,22.4331736 442.0097,25.8561736 C443.9967,29.2831736 444.7297,32.8511736 444.2527,36.5451736 C444.2117,36.6911736 444.1707,36.8361736 444.1297,36.9811736 C443.9157,37.7381736 443.3517,38.1121736 442.4417,38.1081736 C439.4807,38.1601736 436.8667,37.8861736 434.5877,37.2791736 C433.4157,36.9661736 432.7567,36.2951736 432.6097,35.2551736 C432.4827,34.4101736 432.3547,33.5651736 432.2247,32.7191736 C431.9587,31.5881736 431.4777,30.6671736 430.7827,29.9581736 C430.0867,29.2481736 429.3087,28.7851736 428.4517,28.5671736 C427.3297,28.2831736 426.2417,28.4171736 425.1977,28.9671736 C424.1507,29.5181736 423.3717,30.4161736 422.8587,31.6571736 C422.7057,31.9931736 422.5517,32.4861736 422.3937,33.1301736 C421.6877,36.0081736 422.2767,38.9781736 424.1117,42.0561736 C424.6497,43.1891736 426.2097,45.4491736 428.7327,48.8581736 C431.3177,52.5351736 432.7557,54.7151736 433.1217,55.3761736 C435.9637,60.6621736 436.5937,65.8751736 435.1457,70.9901736" id="Fill-18" fill="#FFFFFF"></path>
                <path d="M466.3685,68.9640736 C466.5125,68.1200736 466.6455,67.2570736 466.7695,66.3730736 C466.8895,65.4900736 466.9835,64.7410736 467.0505,64.1260736 C467.1255,63.4820736 467.2005,62.8390736 467.2755,62.1950736 C467.3265,61.8290736 467.2815,61.3380736 467.1385,60.7170736 C467.0185,60.2330736 466.7715,59.9260736 466.3935,59.8020736 C465.9515,59.6550736 465.5375,59.7430736 465.1555,60.0630736 C463.7955,61.6530736 462.4335,64.1310736 461.0645,67.4990736 C460.9075,67.7680736 460.7565,68.1300736 460.6075,68.5900736 C460.5135,68.8770736 460.7025,69.1920736 461.1735,69.5370736 C461.6435,69.8810736 462.2185,70.1650736 462.9005,70.3900736 C463.6435,70.6350736 464.3055,70.7590736 464.8885,70.7620736 C465.4715,70.7660736 465.8335,70.6660736 465.9725,70.4560736 C466.1045,69.9590736 466.2365,69.4610736 466.3685,68.9640736 M473.0415,96.9280736 C472.6695,97.9500736 472.2145,98.5560736 471.6775,98.7470736 C471.1995,98.9610736 469.4865,98.5280736 466.5305,97.4850736 C465.5845,97.1520736 464.6365,96.8210736 463.6895,96.4920736 C462.8785,96.1480736 462.3555,95.7450736 462.1185,95.2790736 C461.8605,94.8710736 461.7685,94.3610736 461.8455,93.7480736 C461.9215,93.1370736 462.1325,91.9310736 462.4795,90.1340736 C462.8625,88.2230736 463.0515,87.1690736 463.0495,86.9770736 C463.3565,85.6780736 463.4735,84.4410736 463.3985,83.2670736 C463.3225,82.0940736 462.6245,81.2510736 461.3055,80.7470736 C461.0725,80.6380736 460.8385,80.5280736 460.6055,80.4190736 C458.8385,79.8330736 457.5765,79.5190736 456.8215,79.4640736 C456.0645,79.4100736 455.4205,79.6300736 454.8925,80.1270736 C454.3625,80.6240736 453.7685,81.5900736 453.1085,83.0290736 C451.9385,85.2240736 450.7735,87.4220736 449.6135,89.6210736 C448.9705,90.8130736 448.0255,91.2080736 446.7735,90.8160736 C445.4815,90.4430736 444.1885,90.0740736 442.8945,89.7100736 C441.8575,89.3610736 440.8195,89.0150736 439.7805,88.6720736 C438.5405,88.2390736 438.0835,87.4730736 438.4095,86.3720736 C438.5295,85.9690736 438.9145,85.1040736 439.5695,83.7850736 C443.5705,75.8340736 448.1415,66.8740736 453.3335,56.9300736 C458.5255,46.9880736 462.6305,39.3600736 465.5435,34.0050736 C466.2585,32.6480736 466.9795,31.8600736 467.7015,31.6450736 C468.4225,31.4300736 469.5755,31.5740736 471.1575,32.0850736 C474.1565,33.0530736 477.1505,34.0440736 480.1385,35.0560736 C481.1495,35.5280736 481.8145,35.9470736 482.1295,36.3100736 C482.4965,36.9470736 482.5535,38.2760736 482.2935,40.2960736 C479.7045,58.3570736 476.8405,76.3520736 473.7025,94.2750736 C473.5095,95.3630736 473.2885,96.2470736 473.0415,96.9280736" id="Fill-20" fill="#FFFFFF"></path>
                <path d="M539.0222,59.0266736 C539.1142,59.3336736 539.0732,59.6806736 538.8992,60.0646736 C538.6502,60.6166736 538.1482,61.2186736 537.3952,61.8736736 C530.6262,68.4356736 525.8172,73.2566736 522.8222,76.2336736 C520.9102,78.1686736 519.0082,80.1106736 517.1172,82.0586736 C517.6042,82.6966736 518.0902,83.3346736 518.5742,83.9736736 C518.9642,84.4066736 519.0392,84.9016736 518.7972,85.4556736 C518.5562,86.0096736 518.1432,86.2916736 517.5622,86.3006736 C515.9542,86.4256736 514.3502,86.5566736 512.7492,86.6956736 C512.2122,87.4516736 511.7302,88.3296736 511.3042,89.3306736 C510.1552,92.1916736 508.6692,95.7616736 506.8442,100.041674 C505.3982,103.433674 504.4202,105.642674 503.9122,106.674674 C503.1772,108.398674 502.6242,109.492674 502.2552,109.958674 C501.8832,110.425674 501.3932,110.610674 500.7832,110.515674 C500.1712,110.420674 498.9962,110.005674 497.2502,109.278674 C496.2022,108.842674 495.1532,108.409674 494.1042,107.979674 C493.3092,107.590674 492.8152,107.177674 492.6192,106.738674 C492.4232,106.301674 492.4232,105.666674 492.6242,104.833674 C492.7152,104.608674 492.8862,104.142674 493.1412,103.429674 C493.3942,102.716674 493.8272,101.605674 494.4382,100.091674 C496.1252,95.9176736 497.8122,91.7436736 499.4982,87.5696736 C500.3212,85.8836736 500.8362,84.0036736 501.0322,81.9326736 C500.0132,80.6746736 498.9882,79.4206736 497.9562,78.1686736 C497.5522,77.7506736 497.4622,77.2596736 497.6842,76.6976736 C497.9052,76.1366736 498.3052,75.8376736 498.8882,75.8076736 C499.7212,75.6826736 500.5562,75.5586736 501.3912,75.4366736 C501.3952,73.4536736 501.3932,71.4696736 501.3852,69.4846736 C501.4602,62.2706736 501.4552,55.0406736 501.3672,47.7976736 C501.4102,46.7146736 501.4522,45.6306736 501.4912,44.5476736 C501.5232,44.4626736 501.5552,44.3786736 501.5882,44.2936736 C501.6942,44.0106736 501.9092,43.7856736 502.2342,43.6176736 C502.5572,43.4496736 502.8932,43.3996736 503.2402,43.4676736 C504.9942,43.9416736 506.6522,44.4846736 508.2092,45.0926736 C509.8302,45.7256736 511.3522,46.4236736 512.7742,47.1876736 C513.6132,47.7166736 514.0112,48.5936736 513.9692,49.8156736 C514.0032,51.5866736 513.9842,53.7636736 513.9012,56.3386736 C513.6862,58.1456736 513.5772,60.3186736 513.5672,62.8626736 C513.4462,64.7726736 513.7582,65.8816736 514.5112,66.1946736 C515.1382,66.4546736 515.6862,66.2896736 516.1542,65.7006736 C517.2822,64.5006736 518.4132,63.3036736 519.5472,62.1096736 C523.4032,57.8976736 525.7992,55.4046736 526.6742,54.5966736 C527.4372,53.8716736 528.3902,53.6876736 529.5302,54.0466736 C533.7002,55.8476736 536.4652,57.1206736 537.8472,57.8036736 C538.4222,58.0616736 538.8132,58.4696736 539.0222,59.0266736" id="Fill-22" fill="#FFFFFF"></path>
            </g>
        </g>
    </g>
</svg>