<?xml version="1.0" encoding="UTF-8"?>
<svg width="448px" height="104px" viewBox="0 0 448 104" version="1.1" xmlns="http://www.w3.org/2000/svg" xmlns:xlink="http://www.w3.org/1999/xlink">
    <title>Group 19</title>
    <defs>
        <polygon id="path-1" points="0 0 66 0 66 76 0 76"></polygon>
        <polygon id="path-3" points="0 0 49 0 49 66 0 66"></polygon>
    </defs>
    <g id="Page-1" stroke="none" stroke-width="1" fill="none" fill-rule="evenodd">
        <g id="Home" transform="translate(-496.000000, -1700.000000)">
            <g id="Group-19" transform="translate(496.000000, 1700.000000)">
                <g id="Group-3" transform="translate(0.000000, 28.000000)">
                    <mask id="mask-2" fill="white">
                        <use xlink:href="#path-1"></use>
                    </mask>
                    <g id="Clip-2"></g>
                    <path d="M59.0394493,18.4399436 C59.9156214,24.2705719 60.4068557,27.5995525 60.463616,28.4361929 C60.5100562,28.6843927 60.5554644,28.9325926 60.6019046,29.1797583 C61.9104868,29.3679765 63.2159729,29.5613656 64.518363,29.7599254 C65.161302,29.9429728 65.5586239,30.2749401 65.7134246,30.7496224 C65.8868014,31.2853204 65.7681209,31.8137793 65.360479,32.3443065 C64.083889,33.6494241 62.816587,34.9597125 61.5575411,36.2751717 C61.6401015,36.8408606 61.7216299,37.4075836 61.8041903,37.9732724 C63.1086444,46.7678207 64.3965864,54.5178613 65.6153842,61.2368383 C65.6969125,61.4736623 65.7268407,61.6608464 65.7062006,61.8004588 C65.7681209,61.9773012 65.8290092,62.1541436 65.8898974,62.330986 C66.0735943,63.458227 66.0271541,64.2679791 65.7526408,64.7612763 C65.4770955,65.2545735 64.8310605,65.7137432 63.8145357,66.1398197 C61.1271951,67.0953891 59.0766014,67.8131004 57.6555308,68.2733043 C56.3572687,68.6890391 55.3871841,68.3188076 54.7442451,67.1595074 C53.8598169,65.3559218 52.594579,63.0962689 50.9351152,60.3836513 C50.3964087,59.5180543 49.8566701,58.6534914 49.3158996,57.7899628 C48.0393096,55.7340406 47.2312498,54.3720439 46.9030723,53.6946651 C45.9412438,51.9231386 44.9928313,50.4784086 44.0578349,49.3646118 C43.7337854,49.0874552 43.3808397,49.0233369 43.0000299,49.1712227 C42.6811404,49.2942885 42.4200432,49.5621375 42.2157063,49.9768381 C42.0113693,50.393607 42.0340734,51.3895089 42.2858826,52.9666122 C43.7833216,59.4260135 44.9412311,64.4437873 45.7224587,68.0313094 C46.1435167,69.8142117 46.2859334,71.0179811 46.1497087,71.6426174 C46.0124521,72.2713903 45.6140982,72.7657217 44.9556791,73.1318165 C44.295196,73.4989455 42.6078681,74.2269984 39.9019514,75.3521711 C38.8193783,75.8020333 37.90399,76.0202424 37.1516585,75.9985249 C36.3993269,75.9768074 35.76258,75.6045076 35.2393535,74.8743864 C33.8781391,72.8401817 32.5107327,70.8090795 31.1371342,68.7810798 C29.3166777,65.9598748 27.4848691,63.1438405 25.6437724,60.3329772 C23.852212,57.6379404 22.0503316,54.9470402 20.2391631,52.2623451 C18.4125145,52.1413477 16.5817379,52.0306919 14.7458013,51.9303778 C14.1090543,51.8745328 13.6642602,51.5611805 13.408323,50.9903208 C13.1771539,50.4763403 13.2524902,49.9654622 13.636396,49.4494134 C14.478512,48.4204181 15.325788,47.3934912 16.178224,46.3686326 C12.3938622,40.8006825 8.56718823,35.255484 4.70026607,29.7330371 C3.62801304,28.2283255 2.55266399,26.7267163 1.47318692,25.2251072 C0.888040171,24.4618926 0.479366251,23.8248463 0.248197166,23.3119 C-0.137772647,22.4576788 -0.0737883465,21.7441042 0.441182072,21.1680737 C0.955120486,20.5930773 2.03975758,19.9715435 3.69302934,19.3076089 C4.23586389,19.0676824 4.77869844,18.82879 5.322565,18.5909318 C5.33494905,18.6188543 5.34733311,18.647811 5.35971717,18.6767676 C6.50111453,18.1421037 7.6445759,17.6115765 8.79010128,17.085186 C9.81075408,16.6456654 10.5754697,16.4574472 11.081152,16.5132922 C11.5878664,16.5691371 12.0894208,17.0024527 12.5899431,17.8080681 C14.3928556,20.4710457 16.184416,23.1402284 17.9677204,25.8135477 C19.7324487,28.7309302 21.3103841,31.2222363 22.7035906,33.2812609 C23.2835773,34.122038 23.9358044,34.4943377 24.6633678,34.396092 C24.7294161,34.3692036 24.7944324,34.3412812 24.8604808,34.3143928 C25.1876263,34.1799513 25.4187954,33.8996922 25.551924,33.4736158 C25.6840206,33.0485736 25.6902127,32.590438 25.5684361,32.1002433 C25.336235,30.7765107 25.0286975,29.3514298 24.6406637,27.8229324 C24.2546939,26.2944349 23.9512845,25.0668798 23.7355955,24.1444037 C23.5033944,22.9913085 23.2722253,21.8382133 23.0431202,20.684084 C22.3764451,18.056268 21.9130749,15.8183326 21.6488817,13.9702778 C21.3671443,12.670331 21.9460991,11.7292399 23.3888418,11.1573461 C24.051389,10.8295154 25.2082664,10.3362182 26.8594741,9.69503523 C28.6489705,9.00007563 30.0380491,8.50574425 31.0267097,8.19652859 C32.357996,7.75907634 33.5974338,8.2296219 34.7347031,9.60609695 C35.8709405,10.9815378 36.6108879,12.1429063 36.9566096,13.0788266 C38.957667,16.5008822 40.9453083,19.9301769 42.9195336,23.3656766 C43.0918784,23.835188 43.5387365,24.4350043 44.2590759,25.1713306 C44.6935499,25.7452927 45.2425765,25.908691 45.9071876,25.6677303 C46.5717987,25.4267696 46.8690161,24.8890032 46.7957438,24.0523629 C46.2983174,20.9788213 45.571786,16.9248903 44.6378216,11.885399 C44.285908,10.0228659 44.0444188,8.35268767 43.9143862,6.87383018 C43.7131453,5.42082684 43.7822896,4.45181323 44.1207872,3.96885767 C44.4582528,3.48797044 45.4510415,2.92331577 47.1001852,2.28937196 C50.0228229,1.28623087 52.1250168,0.623330413 53.4005748,0.266543117 C54.3768514,-0.0561166992 55.1198949,-0.0850733493 55.6297053,0.175536502 C56.1384836,0.436146353 56.4666612,1.03906518 56.6173339,1.97395131 C56.6555181,2.09391457 56.8072228,3.16117396 57.0796721,5.17469531 C57.2551129,6.29986801 57.4305537,7.42607486 57.6070265,8.55124755 C57.9393321,11.2028494 58.4140543,14.5018392 59.0394493,18.4399436" id="Fill-1" fill="#FFFFFF" mask="url(#mask-2)"></path>
                </g>
                <path d="M115.992538,77.4861907 C115.944539,78.140636 115.60959,78.6353593 114.988733,78.9755464 C114.366833,79.3136591 113.107381,79.7067412 111.21142,80.165164 C109.316503,80.6266984 108.078963,80.9056933 107.494628,80.9855543 C106.405259,81.197134 105.700926,81.0021488 105.379541,80.4057842 C105.05607,79.8083825 104.66686,78.6312106 104.211913,76.869083 C102.813681,71.5972201 101.414406,66.3243202 100.014087,61.0524573 C99.574792,59.3546333 99.1188015,58.1432354 98.6502895,57.421375 C97.8249153,56.1467105 95.9425196,55.8811986 93.0177107,56.6621769 C91.688347,57.0179214 90.7356711,57.3114364 90.1555092,57.5333878 C89.3092659,57.8310515 88.7510166,58.2614711 88.4818048,58.8246467 C88.2115495,59.3878223 88.1718982,60.0681965 88.3607638,60.8595464 C88.548586,61.6529705 88.7624946,62.4723236 89.0014462,63.3176056 C90.5541096,68.8083083 92.1057296,74.299011 93.658393,79.7897137 C94.1185574,81.4190854 94.3074231,82.5713655 94.2281203,83.2444796 C94.1467307,83.9186308 93.731435,84.4247628 92.9822332,84.7670242 C92.2330313,85.1123971 90.6668029,85.6206034 88.2898088,86.3206836 C87.1639191,86.6525734 86.2915894,86.8651904 85.6696892,86.9533486 C85.0477891,87.0415069 84.5761467,87.0052064 84.2526751,86.8402986 C83.8290317,86.5768611 83.4888649,86.1391813 83.2321746,85.5293337 C82.9754842,84.9194861 82.5695796,83.7143111 82.0155042,81.9179573 C76.5665737,64.272826 71.1176433,46.6266576 65.6687129,28.9815263 C64.9852488,26.7671987 64.8245565,25.3732614 65.1918532,24.8007514 C65.5581065,24.23239 67.4457195,23.4244457 70.860953,22.4277389 C72.7819566,21.8697491 74.0007139,21.5544538 74.5172249,21.4714813 C75.6744183,21.2090809 76.4674453,21.3615428 76.8973495,21.9247184 C77.3251667,22.487894 77.6590728,23.1921228 77.8969809,24.0374047 C78.1359325,24.8826867 78.2976682,25.4562338 78.3832317,25.757009 C79.7992023,30.7643971 81.2151729,35.7728224 82.6311436,40.7812476 C82.7500976,41.20337 82.9504413,41.9138217 83.2321746,42.9084541 C83.5139079,43.9030865 83.7987715,44.6550245 84.0888524,45.158045 C84.3768465,45.664177 84.7337086,46.0209586 85.1594389,46.2283898 C85.9232492,46.602803 87.4216529,46.4783443 89.6609108,45.876794 C91.0873159,45.4940835 92.1234684,45.1570079 92.7724984,44.858307 C94.0987317,44.3812153 94.7811524,43.6562434 94.8187168,42.6761312 C94.8541943,41.696019 94.6319381,40.264744 94.1446438,38.3823063 L92.0462526,30.2790082 C90.9610577,26.0909732 90.2963758,23.3829594 90.0542939,22.148744 C89.4730886,19.9053761 89.3770906,18.5031415 89.7694302,17.9513746 C90.159683,17.401682 92.0399918,16.6901932 95.4166174,15.8708401 C97.3553598,15.4010085 98.5845517,15.1437939 99.1031496,15.084676 C100.266604,14.8772449 101.047109,15.051487 101.442579,15.6011796 C101.835963,16.1539836 102.12187,16.8125776 102.300301,17.5748871 C102.478732,18.3382337 102.602903,18.8723689 102.673858,19.1772927 C106.931161,37.4011569 111.187421,55.6250211 115.44368,73.8488853 C115.856889,75.6203474 116.040537,76.8338197 115.992538,77.4861907" id="Fill-4" fill="#FFFFFF"></path>
                <path d="M140.177432,44.825095 C139.893747,43.9819052 139.591288,43.1262545 139.269013,42.2571044 C138.945694,41.3900311 138.663052,40.6579512 138.420042,40.0619033 C138.171817,39.4357414 137.923592,38.8095795 137.674324,38.1834176 C137.541868,37.8251657 137.256096,37.3963019 136.817009,36.898903 C136.466574,36.5146909 136.085893,36.355814 135.67288,36.4274644 C135.192075,36.5115757 134.852069,36.7961003 134.655992,37.2758462 C134.184574,39.399397 134.153285,42.337062 134.556911,46.0898798 C134.545438,46.4128256 134.585071,46.8188444 134.674766,47.3131281 C134.731086,47.623613 135.060662,47.8167575 135.665579,47.8998304 C136.269454,47.9839417 136.940079,47.9610966 137.680582,47.8323336 C138.485748,47.6911097 139.158459,47.4792739 139.698713,47.196826 C140.236881,46.9143782 140.520567,46.6454297 140.546641,46.3858269 C140.423571,45.865583 140.300502,45.345339 140.177432,44.825095 M159.936344,67.2391989 C160.08966,68.3586061 159.965547,69.1353376 159.569222,69.5693935 C159.235474,69.9972189 157.465568,70.4240058 154.264718,70.8975213 C153.240529,71.0501677 152.216341,71.2059294 151.192152,71.3637679 C150.285818,71.4416487 149.613108,71.3263851 149.168806,71.0148617 C148.734934,70.7666815 148.403272,70.3430098 148.173821,69.7438465 C147.944369,69.1467601 147.55013,67.939088 146.989016,66.1208302 C146.406,64.1821166 146.063909,63.1239757 145.968999,62.9495226 C145.613349,61.6099723 145.115857,60.4189147 144.472349,59.3784268 C143.827799,58.3400157 142.773364,57.9111519 141.316347,58.0939123 C141.047263,58.10845 140.779221,58.1219494 140.51118,58.1364871 C138.601517,58.4667018 137.287385,58.797955 136.566698,59.1198624 C135.843926,59.4428083 135.36312,59.9609754 135.124282,60.6754023 C134.884401,61.3887907 134.817651,62.5663489 134.922991,64.2070385 C134.936549,66.7895669 134.957408,69.3720954 134.984525,71.952547 C134.986611,73.3575172 134.320159,74.1861693 132.983082,74.4447337 C131.620973,74.7406808 130.258865,75.0428585 128.8978,75.3512666 C127.778702,75.5454494 126.660647,75.7448244 125.542592,75.9473145 C124.196128,76.1674577 123.397219,75.6980959 123.144823,74.5319602 C123.051999,74.1041348 122.972734,73.1249131 122.912242,71.596372 C122.597268,62.3607435 122.316711,51.917443 122.145665,40.2654318 C121.975662,28.6154976 121.985049,19.6155884 122.022596,13.2812806 C122.01008,11.6873196 122.290637,10.6084104 122.859051,10.0549373 C123.426422,9.50042578 124.579938,9.05910106 126.317512,8.74134726 C129.612229,8.13906881 132.911117,7.5679427 136.214177,7.0258921 C137.39481,6.9604722 138.223965,7.01966163 138.699555,7.19619152 C139.35975,7.60013344 140.070007,8.78911417 140.826155,10.7672873 C147.335279,28.5822684 153.480411,46.4907065 159.260505,64.481179 C159.609897,65.5746259 159.834134,66.4936198 159.936344,67.2391989" id="Fill-6" fill="#FFFFFF"></path>
                <path d="M196.981769,9.24846992 C197.021188,10.0008705 196.872847,10.6059043 196.539855,11.0625336 C196.198566,11.3967032 195.690262,11.6115265 195.017018,11.7121925 C194.340662,11.8138963 193.629037,11.8865419 192.880066,11.9322048 C192.130058,11.9778677 191.611381,12.0110771 191.327145,12.0287196 C188.971312,12.1802375 187.424615,12.6389424 186.692242,13.3820028 C186.152817,13.8604258 185.860283,14.4799887 185.809453,15.238616 C185.758622,15.9972433 185.817752,17.5020444 185.985803,19.754057 C187.025233,33.6687969 188.064663,47.5835368 189.104093,61.4982767 C189.132102,61.8729203 189.190194,62.6564547 189.279406,63.8436908 C189.367581,65.0319648 189.269033,65.8881447 188.986872,66.4122306 C188.702637,66.9383921 188.211968,67.2580326 187.51279,67.3753033 C186.683943,67.5029519 185.4692,67.6326762 183.869599,67.7707027 C182.267922,67.9097671 181.081188,67.9886395 180.307321,67.9979796 C179.341543,68.0270378 178.69942,67.7426823 178.383027,67.1428375 C178.065596,66.546106 177.876797,65.7905921 177.82078,64.8825225 C177.763726,63.9754907 177.720157,63.3642301 177.690073,63.0518541 C176.275121,48.6659558 174.861206,34.2800575 173.447291,19.8931214 C173.268865,18.0842467 173.095627,16.8565366 172.923426,16.2120666 C172.7533,15.5665589 172.433794,15.0476619 171.962835,14.6533003 C171.421336,14.267241 170.733569,14.0534554 169.902648,14.0119437 C169.071726,13.9735453 167.943084,14.0285484 166.519832,14.1852553 C165.168158,14.3346976 164.345536,14.398003 164.054039,14.367907 C162.980376,14.428099 162.211696,14.3305464 161.746961,14.0690223 C161.283263,13.8095739 160.957533,13.2159558 160.774959,12.2912815 C160.615206,11.2680167 160.455454,10.2457898 160.295701,9.22252508 C160.204414,8.15982418 160.113126,7.09712328 160.021839,6.03338458 C159.938851,5.34844064 160.092379,4.79322094 160.482425,4.36772546 C160.741764,4.08544553 161.157743,3.87581118 161.732438,3.74712474 C162.305058,3.61740051 162.883902,3.53541479 163.468971,3.49909201 C164.051964,3.46484481 164.59865,3.42021968 165.107992,3.36314101 C173.819701,2.39903053 182.549045,1.6445544 191.288763,1.09763705 C193.181937,0.979328548 194.460996,0.971026197 195.123866,1.05923867 C195.786736,1.14848895 196.222425,1.47124283 196.435083,2.02438695 C196.645666,2.57856887 196.79297,3.63919418 196.875959,5.2041873 C196.991105,7.3960079 197.025338,8.74513991 196.981769,9.24846992" id="Fill-8" fill="#FFFFFF"></path>
                <path d="M282.155397,35.6691514 C277.834333,50.6028887 275.302052,60.1576987 274.234839,64.2764913 C274.210822,64.5276878 274.15861,64.7093382 274.08238,64.8287084 C274.064628,65.0155488 274.045832,65.2023892 274.027036,65.3902676 C273.722118,66.4947019 273.342015,67.2150754 272.88777,67.5493121 C272.431438,67.8835488 271.653479,68.0309451 270.553895,67.9946151 C267.716696,67.7392665 265.561385,67.5347801 264.082742,67.3583197 C262.733584,67.1932774 262.009926,66.4479918 261.910723,65.1214251 C261.862688,63.1056248 261.660106,60.5126954 261.289401,57.3415988 C261.163048,56.3274706 261.034606,55.3123045 260.905121,54.2971384 C260.606468,51.8879353 260.443567,50.304982 260.428947,49.5493165 C260.297373,47.5283262 260.04049,45.8145846 259.659343,44.4060157 C259.480778,44.0178029 259.189435,43.8122784 258.783226,43.7852904 C258.443848,43.7634923 258.096116,43.8994706 257.74003,44.1921872 C257.380812,44.4849038 256.986089,45.4035358 256.556907,46.948083 C255.221324,53.4667367 254.179173,58.5301113 253.391817,62.1299028 C253.03051,63.9318746 252.657716,65.089247 252.27448,65.6020201 C251.8902,66.1168691 251.323178,66.4002437 250.577591,66.4583719 C249.829915,66.515462 248.002496,66.4729039 245.096377,66.3597616 C243.933094,66.3161656 243.01834,66.1282872 242.348983,65.7919745 C241.681714,65.4577378 241.262974,64.8484305 241.093807,63.9640526 C240.712659,61.5361655 240.324202,59.1093165 239.92948,56.6835054 C238.233634,45.2166954 236.398905,33.7592274 234.424248,22.3121394 C233.421778,16.368539 232.383804,10.4270145 231.308237,4.4896421 C231.099389,3.54713613 230.994965,2.79562256 231,2.22991137 C231.00854,1.2884434 231.360449,0.665642098 232.062178,0.357355453 C232.761819,0.0511448114 233.994022,-0.0609594233 235.755654,0.0314227701 C236.342516,0.0418027918 236.930423,0.0521828136 237.517286,0.0636008375 C237.517286,0.0957789049 237.516242,0.12691897 237.515198,0.158059035 C238.764108,0.151831022 240.013019,0.149755018 241.261929,0.151831022 C242.363602,0.181933085 243.131118,0.330367396 243.562389,0.594019948 C243.995749,0.858710502 244.268295,1.46490377 244.38525,2.40844775 C244.902149,5.59511442 245.408605,8.78178109 245.904619,11.9694858 C246.283678,15.3720569 246.672135,18.305451 247.071034,20.7696682 C247.244378,21.7806823 247.678782,22.3931036 248.37529,22.610046 C248.446298,22.612122 248.516262,22.6152361 248.58727,22.6183501 C248.938135,22.6328821 249.262893,22.4751058 249.560501,22.1419071 C249.856021,21.8097464 250.052338,21.3966215 250.145276,20.8963045 C250.486742,19.5925737 250.801058,18.1622067 251.088224,16.6062415 C251.373301,15.0502762 251.610344,13.8036356 251.800395,12.8715097 C252.069809,11.7224412 252.341312,10.5733728 252.613858,9.42534244 C253.105695,6.74833483 253.617372,4.51247815 254.14889,2.71777239 C254.432924,1.41300366 255.347677,0.798506376 256.887931,0.882584552 C257.62412,0.860786507 258.874075,0.898154585 260.633618,1.00610681 C262.5404,1.12236305 264.00338,1.25522733 265.026734,1.38809161 C266.413485,1.54690594 267.338681,2.49563993 267.795014,4.22910356 C268.250302,5.96152919 268.435133,7.32961605 268.357859,8.32921214 C268.743183,12.2902284 269.112844,16.2522827 269.467886,20.213299 C269.42716,20.7146541 269.581708,21.4495596 269.927351,22.4221677 C270.082943,23.1280091 270.510037,23.5068799 271.214898,23.567084 C271.917672,23.6262502 272.410553,23.2598354 272.692497,22.4647257 C273.524756,19.4534814 274.559598,15.4499071 275.815818,10.4612686 C276.274239,8.61466274 276.753545,6.98915134 277.252692,5.5857724 C277.676653,4.17616545 278.144473,3.32085166 278.653017,3.02190703 C279.160518,2.72400041 280.29665,2.6253902 282.059327,2.73957044 C285.13148,3.04785709 287.320206,3.32396566 288.628638,3.5326041 C289.650949,3.64678434 290.340147,3.93223494 290.694144,4.38376588 C291.046053,4.83737283 291.094088,5.52141627 290.839294,6.43797218 C290.824674,6.56357045 290.516624,7.60053462 289.921407,9.5519787 C289.609179,10.652261 289.297996,11.7525433 288.987857,12.8538636 C286.64876,20.4458115 284.371273,28.0512534 282.155397,35.6691514" id="Fill-10" fill="#FFFFFF"></path>
                <path d="M320.919433,69.7334738 C320.576858,71.4504765 320.261439,72.6940372 319.976308,73.4651895 C319.715199,74.4348153 319.217004,74.9413363 318.479633,74.989921 C317.741217,75.0374719 316.608005,74.9165271 315.076863,74.6322551 C308.152258,73.3483795 301.206764,72.2143928 294.244559,71.2302949 C293.282634,71.0938444 292.502441,70.9398207 291.905024,70.7630552 C291.307607,70.5862897 290.838656,70.3206246 290.495037,69.9577902 C290.150373,69.598057 289.985352,69.1194463 290.001019,68.5219583 C290.015641,67.9244703 290.164995,66.5744369 290.448037,64.4687569 C292.873216,46.4500487 295.298394,28.4313406 297.723572,10.4126325 C297.956482,8.67909029 298.202968,7.52959781 298.465121,6.96622244 C298.725186,6.40077965 299.196226,6.08549619 299.874064,6.01933835 C300.549814,5.95421422 301.874158,6.05241727 303.841874,6.33152066 C311.711693,7.4469005 319.562712,8.73180982 327.389709,10.1841812 C329.708355,10.6152408 331.15072,11.1196944 331.716804,11.6737663 C332.136667,12.2009616 332.089667,13.751536 331.575805,16.3254895 C331.282319,17.7964677 331.044188,18.7991725 330.8635,19.3387724 C330.597169,20.3052971 330.055108,20.8035483 329.237315,20.8366272 C328.418478,20.8697061 326.98029,20.6898395 324.918575,20.3083982 C321.398829,19.6581907 317.87386,19.0441632 314.344714,18.4632147 C312.623485,18.2451006 311.398362,18.3515733 310.67248,18.7722959 C309.946597,19.1971532 309.395135,20.1368013 309.019139,21.5974424 C308.777874,22.8875203 308.53661,24.1775982 308.29639,25.4676761 C308.109436,26.6430115 307.900549,28.4106663 307.668684,30.7768428 C307.492175,31.8891215 307.662418,32.8329044 308.17628,33.6081916 C308.60032,34.0537233 309.200871,34.4020857 309.975841,34.6532788 C310.748723,34.9065392 311.862091,35.1494626 313.311767,35.3934196 C316.072209,35.8565245 317.756883,36.1924823 318.365789,36.3620117 C319.607623,36.5842607 320.396171,36.9346906 320.734568,37.4081326 C321.07401,37.8836421 321.172186,38.6796036 321.033277,39.7970509 C320.917344,40.6023158 320.801412,41.4075808 320.684435,42.2118121 C320.535081,43.009841 320.252039,44.1345243 319.839487,45.5827608 C319.608667,46.8118494 318.738652,47.3493819 317.232577,47.2046616 C316.209031,47.0857842 313.942606,46.7084778 310.430171,46.1254618 C308.400833,45.789504 307.022179,45.8411899 306.295252,46.2629461 C305.567281,46.6867698 305.019997,47.8507343 304.651311,49.7527722 C304.240848,51.458404 303.954673,52.8373815 303.788607,53.8866035 C303.640298,55.0329948 303.493032,56.1804199 303.344723,57.3268112 C303.240279,58.8277672 303.440811,59.9017984 303.942139,60.5509722 C304.444513,61.1991123 305.474326,61.6797904 307.034712,61.998175 C310.242172,62.5253703 313.445455,63.0846108 316.64456,63.6738291 C317.036223,63.7461892 317.73495,63.8919432 318.740741,64.1131585 C319.744444,64.3354075 320.465104,64.6331178 320.898544,65.0031882 C321.334074,65.3742923 321.514761,65.9025213 321.445828,66.5899426 C321.363318,67.3362858 321.187853,68.3875752 320.919433,69.7334738" id="Fill-12" fill="#FFFFFF"></path>
                <path d="M386.952644,40.4878319 C387.674874,37.2314261 385.93552,34.9257578 381.722167,33.6549906 C380.203208,33.1978054 379.081579,33.1791023 378.362453,33.5884909 C377.642292,33.9999577 377.100102,34.9683591 376.732779,36.4957735 C373.521028,47.5565393 370.308243,58.6183441 367.096493,69.6791099 C366.676399,71.1265168 366.445658,72.2196052 366.403235,72.959414 C366.359777,73.6992229 366.70951,74.3413603 367.446226,74.8858264 C367.947027,75.2962541 368.609244,75.6245962 369.43391,75.87397 C371.018057,76.3519364 372.555641,76.2999835 374.059079,75.7160332 C375.559414,75.132083 376.53101,74.1574472 376.962485,72.777579 C380.073869,62.8337999 383.185252,52.8900208 386.295601,42.9462417 C386.707417,41.629756 386.925741,40.8099397 386.952644,40.4878319 M398.334492,62.2529668 C398.148243,62.7849642 397.741601,63.108111 397.115599,63.2203292 C395.572841,63.4437266 394.033188,63.6743973 392.498708,63.9123414 C391.057352,68.1620861 389.617031,72.4118308 388.175675,76.6615755 C387.106816,79.8140755 385.336421,82.3223601 382.900706,84.2176007 C380.769196,85.8208662 378.907747,86.8900563 377.296698,87.4199756 C375.686684,87.9498948 373.999066,88.1182221 372.225567,87.9187231 C370.452068,87.7213022 368.144657,87.1830705 365.292987,86.3289653 C361.674594,85.2130177 358.046889,84.1396714 354.408836,83.1110046 C354.283636,83.0767157 354.159471,83.0424268 354.03427,83.0081379 C353.160972,82.7691547 352.586706,82.4189924 352.309403,81.9555728 C352.031065,81.4911142 351.94001,80.9466481 352.038308,80.3232137 C352.136606,79.7008183 352.426325,78.4788868 352.908502,76.6574192 C354.933436,69.010996 356.95837,61.3656118 358.983305,53.7202276 C357.844085,52.6687016 356.697623,51.6213317 355.545987,50.5781181 C355.089678,50.1365187 354.931367,49.6408884 355.071053,49.0943442 C355.209705,48.5467609 355.585306,48.1893252 356.199925,48.0241151 C357.71785,47.6697965 359.239914,47.3237904 360.766116,46.9840186 C362.839682,39.1567994 364.912213,31.3285411 366.984744,23.5013219 C367.301366,22.4487568 367.617988,21.3961917 367.934611,20.3436265 C368.299864,19.5321227 368.835846,19.0905233 369.538416,19.0198674 C370.239952,18.9492115 371.158778,19.066625 372.292824,19.3783422 C379.442694,21.3515122 383.846434,22.6815056 385.546468,23.1553158 C387.245468,23.6374384 388.129113,23.8940856 388.199473,23.9159058 C392.069302,25.1066656 394.94477,27.2866079 396.780352,30.3985848 C398.515566,33.3453515 399.526481,35.8266205 399.850347,37.8226497 C400.172143,39.8207571 399.973478,41.8604267 399.268838,43.9406196 C397.758156,48.3981757 396.24644,52.8567709 394.734724,57.3143271 C395.824277,58.4489777 396.906587,59.5888237 397.982689,60.7307477 C398.403817,61.2118313 398.521775,61.7199304 398.334492,62.2529668" id="Fill-14" fill="#FFFFFF"></path>
                <g id="Group-18" transform="translate(399.000000, 38.000000)">
                    <mask id="mask-4" fill="white">
                        <use xlink:href="#path-3"></use>
                    </mask>
                    <g id="Clip-17"></g>
                    <path d="M22.5822557,49.8550436 C26.6724695,40.0733708 30.7637153,30.291698 34.8539291,20.5100253 C35.2905076,19.4676307 35.5475006,18.3847043 35.6259402,17.2591676 C35.6775452,16.1928696 35.3782361,15.2149102 34.7238845,14.3284072 C34.0685007,13.4408648 33.2015364,12.7736491 32.1271199,12.3329958 C30.9185304,11.8351822 29.6882668,11.7239796 28.4487142,12.0014665 C27.2070975,12.2799927 26.2689182,12.9336978 25.6310802,13.9625817 C25.4256922,14.2857968 25.0242052,15.2076353 24.4266191,16.7249793 C20.6769984,26.239558 16.9273778,35.7551759 13.1787892,45.2697545 C12.4191634,47.1955344 12.0806344,48.5143765 12.1611383,49.222124 C12.189005,50.2468509 12.4955388,51.1479038 13.083836,51.9273614 C13.670069,52.7078582 14.4235023,53.2846568 15.3482642,53.6660714 C16.2730261,54.0464467 17.207077,54.1794741 18.1597056,54.0672322 C19.1082059,53.9539511 19.9380146,53.5735758 20.6460354,52.9188314 C21.3550884,52.2661656 22.0011832,51.2445566 22.5822557,49.8550436 M30.4024802,60.983619 C30.0856254,61.5292393 29.4498516,62.1372162 28.4972229,62.808589 C25.6548185,64.6252447 22.6895941,65.6603644 19.5871004,65.9233014 C16.4835746,66.1883169 13.5967899,65.7684491 10.8885585,64.6533052 C8.12046532,63.5132186 5.77656538,61.7641158 3.82795988,59.3852113 C1.87729018,57.0052676 0.651154942,54.2231237 0.148522062,51.0190335 C-0.226130372,48.7991384 0.106205947,46.247714 1.16617303,43.3595639 C5.21819908,32.3130913 9.27125724,21.267658 13.3243154,10.2222247 C15.0190242,4.96972002 19.4911151,1.54530313 26.8964353,0.192164806 C28.426008,-0.0842828096 29.8482423,-0.0624579978 31.1538493,0.257639241 C33.5380011,0.872891077 35.4835103,1.50061423 36.9924411,2.12314101 C39.5283117,3.17073197 41.6255396,4.41578552 43.2779323,5.84063394 C44.9292929,7.26548236 46.2472851,8.98652466 47.2267484,10.9944073 C49.6656015,15.5703429 49.5706483,20.674231 47.0543876,26.2780112 C42.8413539,35.7666079 38.626256,45.2552047 34.410126,54.7417228 C33.8455671,56.0034048 32.5017724,58.0788405 30.4024802,60.983619" id="Fill-16" fill="#FFFFFF" mask="url(#mask-4)"></path>
                </g>
            </g>
        </g>
    </g>
</svg>