<?xml version="1.0" encoding="UTF-8"?>
<svg width="315px" height="76px" viewBox="0 0 315 76" version="1.1" xmlns="http://www.w3.org/2000/svg" xmlns:xlink="http://www.w3.org/1999/xlink">
    <title>Group 18</title>
    <defs>
        <polygon id="path-1" points="0 0 47 0 47 53 0 53"></polygon>
    </defs>
    <g id="Page-1" stroke="none" stroke-width="1" fill="none" fill-rule="evenodd">
        <g id="Home---Mobile" transform="translate(-28.000000, -320.000000)">
            <g id="Group-18" transform="translate(28.000000, 320.000000)">
                <g id="Group-3" transform="translate(0.000000, 20.000000)">
                    <mask id="mask-2" fill="white">
                        <use xlink:href="#path-1"></use>
                    </mask>
                    <g id="Clip-2"></g>
                    <path d="M42.0954507,12.8666731 C42.7119648,16.933618 43.056763,19.2549588 43.0961149,19.8389729 C43.1289082,20.0127975 43.1617015,20.1857024 43.1944948,20.3595271 C44.1267616,20.4910452 45.0571544,20.6271619 45.9847364,20.7669574 C46.4419688,20.8947966 46.7249281,21.1256431 46.8336145,21.4576574 C46.9572921,21.8319782 46.8720295,22.2017005 46.5815745,22.570503 C45.6699207,23.4791737 44.7648256,24.3924429 43.8662891,25.3084712 C43.9243801,25.7030255 43.9815341,26.0975799 44.0396251,26.4921342 C44.9578376,32.6265808 45.8666805,38.0344587 46.727739,42.722206 C46.78583,42.8868335 46.8064429,43.0174319 46.7923886,43.1149209 C46.8354884,43.2381616 46.8795251,43.3623221 46.9226249,43.4864826 C47.0528611,44.2719125 47.0181939,44.8375323 46.8223711,45.1805831 C46.6256112,45.5236339 46.1655681,45.8427722 45.4413045,46.1407574 C43.5271126,46.8029465 42.0664052,47.3032672 41.0544976,47.6224055 C40.1297265,47.9102739 39.4391932,47.6536756 38.9828979,46.8434136 C38.3551403,45.586174 37.45473,44.0070368 36.275108,42.1142795 C35.8928318,41.5109517 35.5086817,40.9076238 35.1245316,40.3052156 C34.2166256,38.8723119 33.6432112,37.920415 33.4089734,37.4467659 C32.7249988,36.2115992 32.0503937,35.2036002 31.3851581,34.4264476 C31.1537311,34.2323894 30.9026281,34.1873238 30.6318491,34.2894113 C30.4041699,34.374944 30.2186535,34.5625643 30.0724891,34.8531917 C29.9263246,35.1410601 29.9413159,35.8381981 30.1202736,36.9381678 C31.1827766,41.443813 32.0044831,44.9432987 32.5582214,47.4458218 C32.8571089,48.6911052 32.9582997,49.5298781 32.8599198,49.9648996 C32.7624768,50.4026802 32.4776436,50.7484901 32.0101048,51.0032489 C31.5397551,51.2589275 30.3385833,51.7666059 28.4103371,52.5501963 C27.640163,52.8638165 26.9871078,53.0137287 26.4530454,52.9990134 C25.9171092,52.9833784 25.4636246,52.724021 25.0916549,52.2154229 C24.122847,50.7963148 23.1493544,49.3790462 22.172114,47.9645366 C20.8763101,45.9963633 19.5730106,44.0327886 18.2622154,42.071973 C16.9860875,40.1920916 15.7034009,38.3149694 14.4141556,36.4424457 C13.11273,36.3578326 11.8084935,36.2814969 10.4995722,36.2115992 C10.0451507,36.1711321 9.72846113,35.9540812 9.54669254,35.555848 C9.38272603,35.1990016 9.43613226,34.8412356 9.7097221,34.4816301 C10.311245,33.7633388 10.9155787,33.0468869 11.5227233,32.3322745 C8.82805074,28.4483513 6.10339577,24.5809828 3.34782141,20.7301691 C2.58420594,19.6807832 1.81777961,18.6332368 1.04947938,17.5866101 C0.632535958,17.0550194 0.34020709,16.6108008 0.176240577,16.2521151 C-0.0982862125,15.6570645 -0.0523755889,15.159503 0.315846351,14.757591 C0.682194388,14.3565987 1.45611633,13.9206575 2.63573827,13.4571251 C3.02269924,13.2897384 3.40966021,13.1223517 3.79755813,12.9558847 C3.80599069,12.9761183 3.81536021,12.9963518 3.82472972,13.0165854 C4.63894058,12.6431843 5.45408838,12.273462 6.27111009,11.9055792 C7.00005836,11.5993167 7.54442718,11.4668789 7.90609046,11.5064263 C8.26681679,11.545054 8.62473226,11.8467179 8.98077383,12.4095787 C10.2634604,14.2673871 11.5395884,16.1288743 12.8091577,17.9940404 C14.0656096,20.0284325 15.1890145,21.7648396 16.1803092,23.2014221 C16.5935048,23.789115 17.0572958,24.0484724 17.5763669,23.9804141 C17.6232145,23.9611002 17.6700621,23.9427061 17.7169096,23.9233922 C17.9511475,23.8295821 18.115114,23.6346042 18.2106831,23.3356994 C18.3043782,23.0395537 18.3099999,22.7204153 18.2228634,22.3782842 C18.05796,21.4548983 17.8405872,20.4616146 17.5660604,19.3938346 C17.2905967,18.3288138 17.0760348,17.4734861 16.9223748,16.8278517 C16.7574713,16.0240277 16.5944417,15.2192839 16.4314122,14.4145402 C15.9591886,12.5824836 15.6303186,11.0199012 15.4438653,9.7304718 C15.2433577,8.82456027 15.6565533,8.16880909 16.6871999,7.7696562 C17.1594235,7.53972941 17.9848778,7.19575895 19.1635627,6.74878128 C20.4396907,6.26409563 21.4309854,5.92012516 22.1365099,5.70491369 C23.0875156,5.39957092 23.9701239,5.72882608 24.7787131,6.68900032 C25.5882392,7.65009427 26.113869,8.45851684 26.3593503,9.11242861 C27.7825796,11.500908 29.1964394,13.893986 30.5999928,16.2907428 C30.7208595,16.6181585 31.0384861,17.0375449 31.5519355,17.5507415 C31.8611295,17.9517338 32.2518383,18.0657775 32.7259357,17.8983908 C33.2000332,17.7310041 33.4117842,17.3557636 33.3602519,16.7717496 C33.009832,14.6279123 32.4973196,11.7998128 31.8377057,8.28469219 C31.5884766,6.9833066 31.4188884,5.81711796 31.3280041,4.78704598 C31.1865244,3.77444843 31.2371198,3.09846369 31.4788533,2.76093117 C31.7205868,2.42523807 32.4289221,2.03344283 33.6057332,1.5910637 C35.6904503,0.893005989 37.1923835,0.433152424 38.1021634,0.184831499 C38.7983184,-0.0386573331 39.3295699,-0.0598105971 39.6921701,0.123211122 C40.0538334,0.307152548 40.2880713,0.724699584 40.3930099,1.37769165 C40.4201815,1.461385 40.5269939,2.20634777 40.718132,3.61074056 C40.8408727,4.39617045 40.9645503,5.18160033 41.0891648,5.96703022 C41.3215288,7.81840068 41.6550835,10.1176685 42.0954507,12.8666731" id="Fill-1" fill="#FFFFFF" mask="url(#mask-2)"></path>
                </g>
                <path d="M82.9944441,53.4446388 C82.9576903,53.8994413 82.7139541,54.2421511 82.2613013,54.4764434 C81.8086486,54.7107356 80.8927037,54.979942 79.5134668,55.295088 C78.1342298,55.6120716 77.2347275,55.8031806 76.8110909,55.8592269 C76.0189485,56.0016399 75.5063289,55.8665773 75.2741992,55.4522016 C75.0411024,55.0359884 74.7596452,54.2173437 74.4317621,52.9935114 C73.425867,49.327527 72.4199719,45.6615426 71.4121424,41.9964771 C71.0958658,40.8149092 70.7670154,39.9732947 70.4265586,39.4716337 C69.8288248,38.5840796 68.4611944,38.395727 66.3323721,38.9332209 C65.3641981,39.1776199 64.6707108,39.381592 64.2480414,39.5359492 C63.6309635,39.7408401 63.2257038,40.038529 63.0274264,40.4299349 C62.8310834,40.8204219 62.8011,41.2936004 62.936509,41.8439574 C63.0709507,42.3952332 63.226671,42.9639662 63.3988338,43.5519937 C64.5178921,47.3686602 65.6369504,51.1862454 66.7560087,55.0029118 C67.0877607,56.1367025 67.2231696,56.9360524 67.1632028,57.4027993 C67.103236,57.8713838 66.8005002,58.2232815 66.2559628,58.4594113 C65.7094909,58.6982975 64.5710885,59.0492765 62.8426899,59.5316429 C62.0234657,59.7604223 61.388978,59.9074292 60.9372925,59.9671508 C60.4856069,60.0296287 60.1422484,60.0029837 59.9072172,59.8872158 C59.5996454,59.7034572 59.3539749,59.3993367 59.1682712,58.9748543 C58.9816003,58.5512907 58.6885366,57.7133514 58.2871458,56.4647116 C54.3525484,44.1988241 50.4169838,31.9320177 46.4814192,19.6661302 C45.9862093,18.1253142 45.8730461,17.1569063 46.1419296,16.7609065 C46.4088787,16.3667443 47.7842468,15.8071993 50.27287,15.1181045 C51.6724183,14.7303738 52.5612813,14.5153762 52.9375248,14.4574923 C53.7799619,14.27649 54.3573844,14.3839888 54.6697922,14.7763135 C54.9802656,15.1686381 55.2211001,15.6583548 55.3932629,16.2445448 C55.566393,16.8334912 55.6824578,17.2313286 55.744359,17.4398946 C56.7647622,20.9221203 57.7851654,24.4034273 58.8055686,27.8847342 C58.89165,28.178748 59.0357638,28.6712211 59.2388773,29.3630723 C59.4429579,30.0558423 59.6470386,30.5777167 59.8578896,30.9286957 C60.0677735,31.2805934 60.3260177,31.5295864 60.6345567,31.6729181 C61.1897334,31.9338553 62.2807427,31.8502451 63.9114534,31.4358695 C64.9492664,31.1730946 65.7036877,30.94064 66.1766518,30.7329928 C67.1428915,30.4031461 67.6419702,29.9005662 67.6700192,29.2197406 C67.6990354,28.5398337 67.5394463,27.543862 67.1893174,26.2364195 C66.6863698,24.3584064 66.1824551,22.4803934 65.6795075,20.6023803 C64.8989716,17.6916439 64.4211714,15.8081181 64.2470742,14.9508841 C63.8292409,13.3898547 63.7625036,12.4168528 64.049764,12.0337161 C64.33509,11.6514982 65.7056221,11.1617815 68.1661963,10.5967238 C69.5792854,10.2742274 70.474919,10.0987379 70.8511624,10.0573922 C71.6994028,9.91497931 72.2671532,10.0380976 72.5534464,10.4212343 C72.8397397,10.8052898 73.0457547,11.2637675 73.173426,11.7939111 C73.3020645,12.3249735 73.3910475,12.6952471 73.4423095,12.9065696 C76.4957815,25.576726 79.5492534,38.2459637 82.6027254,50.9152014 C82.9006251,52.1473029 83.0292636,52.9898362 82.9944441,53.4446388" id="Fill-4" fill="#FFFFFF"></path>
                <path d="M100.259012,39.4695987 C99.0549615,32.0331904 97.8499907,24.5977233 96.6459406,17.1622561 C96.5170667,16.3698674 96.2703653,15.6217094 95.9030747,14.9149589 C95.5422279,14.2543212 95.0092424,13.7790762 94.3031976,13.4948703 C93.5953119,13.2106643 92.8460023,13.1400834 92.0571101,13.2821864 C91.1697214,13.4421698 90.4112067,13.8421285 89.7889299,14.4801802 C89.1666532,15.1201141 88.859197,15.8682721 88.8655415,16.7293597 C88.8647202,17.0032137 88.9687398,17.7090232 89.176779,18.8486701 C90.4848489,25.9942849 91.7919982,33.1389586 93.100068,40.2845733 C93.3651799,41.7310121 93.6505435,42.6532698 93.9579998,43.0466409 C94.3501445,43.652696 94.8601169,44.0790049 95.4888373,44.3246265 C96.1166371,44.5695867 96.7683707,44.6304773 97.4467996,44.5090781 C98.124308,44.3867378 98.7171278,44.1110015 99.2298617,43.6828105 C99.739834,43.2536784 100.083191,42.7097345 100.25533,42.0472148 C100.427468,41.385636 100.43023,40.5264307 100.259012,39.4695987 M108.868707,43.1925082 C108.885276,43.641403 108.737992,44.2483991 108.431456,45.0144376 C107.448333,47.1864485 106.107124,48.9349738 104.402307,50.2713063 C102.697489,51.6085799 100.863798,52.451787 98.8791407,52.8093971 C96.8493772,53.1754769 94.8417063,53.0145523 92.8294328,52.3238002 C90.8162388,51.6349302 89.075521,50.4275255 87.6017562,48.6921753 C86.5661626,47.5026512 85.8196146,45.8397641 85.3759203,43.7016321 C83.6803083,35.5208301 81.9837758,27.3400282 80.2881639,19.1592263 C79.344623,15.3591483 80.707004,11.5985956 84.5400812,7.97073506 C85.333576,7.22351813 86.1721767,6.69557267 87.0531217,6.39160408 C88.6723299,5.85612998 90.0374724,5.49287339 91.1467083,5.29430567 C93.0098563,4.96022253 94.6888987,4.91222749 96.1727893,5.14185083 C97.6557594,5.37147417 99.0521999,5.9050661 100.356588,6.74074448 C103.44864,8.56643823 105.255636,11.6701176 105.844774,15.9981411 C106.8684,23.3046804 107.891107,30.6112197 108.911972,37.917759 C109.044528,38.8889528 109.025197,40.6478299 108.868707,43.1925082" id="Fill-6" fill="#FFFFFF"></path>
                <path d="M165.591193,23.2016028 C163.44949,33.9768509 162.243853,40.8583332 161.740962,43.8226496 C161.738173,43.9995539 161.713075,44.1324661 161.666597,44.2195142 C161.664738,44.3533624 161.662879,44.4862746 161.66102,44.6191868 C161.51415,45.41666 161.290126,45.9445648 160.993597,46.2075812 C160.697068,46.4687256 160.16536,46.6175498 159.397545,46.6568619 C157.412008,46.6418859 155.900546,46.6222298 154.862229,46.5847898 C153.915009,46.5454777 153.368429,46.065309 153.222488,45.1339876 C153.071899,43.7178175 152.779088,41.9010388 152.336619,39.6883314 C152.189748,38.9807144 152.041019,38.2730973 151.89229,37.5654803 C151.543705,35.8853578 151.338273,34.7790041 151.284358,34.2464193 C151.074278,32.8321212 150.795411,31.6377834 150.447756,30.6680859 C150.301815,30.4041335 150.086157,30.2749653 149.802642,30.2805814 C149.564675,30.2852614 149.331356,30.4013255 149.099896,30.6287739 C148.867506,30.8552862 148.646271,31.5282712 148.43805,32.6402409 C147.889611,37.3127599 147.460155,40.9416373 147.122725,43.5231292 C146.975855,44.8157471 146.785295,45.6534684 146.549187,46.036293 C146.31122,46.4219255 145.93382,46.6549899 145.417915,46.740166 C144.90108,46.8244061 143.628515,46.8992862 141.599288,46.9910144 C140.787784,47.0284544 140.139882,46.9488943 139.655582,46.752334 C139.170352,46.5548377 138.843147,46.1514211 138.673968,45.5383402 C138.265892,43.8497937 137.853168,42.1621832 137.435796,40.4755086 C135.581327,32.4951607 133.628324,24.5288527 131.577718,16.5784568 C130.530106,12.4497546 129.456466,8.32479647 128.356798,4.2045183 C128.154154,3.55306132 128.03703,3.02890054 128.007284,2.62922794 C127.957088,1.96653895 128.166239,1.50696226 128.637525,1.24768987 C129.107881,0.991225485 129.961216,0.838657256 131.19474,0.799345197 C131.604675,0.772201157 132.014611,0.745057116 132.424546,0.718849077 C132.426405,0.74131311 132.427335,0.763777144 132.429194,0.785305176 C133.299261,0.70761706 134.169327,0.631800946 135.040324,0.559728838 C135.810928,0.514800771 136.35379,0.576576864 136.670769,0.736633103 C136.987749,0.897625345 137.213631,1.30852996 137.350276,1.96747495 C137.897786,4.18205426 138.43786,6.39850558 138.970497,8.6149569 C139.434347,10.9895925 139.877746,13.0347555 140.300695,14.7476381 C140.481029,15.4505751 140.818459,15.8558638 141.316703,15.9681839 C141.365969,15.9663119 141.415236,15.9644399 141.464502,15.9616319 C141.709906,15.9513359 141.926493,15.8212317 142.114264,15.5685113 C142.301105,15.3176629 142.413582,15.0143985 142.449834,14.656846 C142.610648,13.7180365 142.746364,12.692179 142.854192,11.5783373 C142.962021,10.4654317 143.054977,9.57435834 143.131201,8.90418134 C143.252043,8.0786281 143.373816,7.25307486 143.496517,6.42752163 C143.682429,4.51339876 143.908312,2.90815636 144.173236,1.61085841 C144.295938,0.675793012 144.896432,0.189072283 145.97472,0.158184237 C146.485977,0.10015215 147.359762,0.0524160785 148.592357,0.0252720379 C149.927203,-0.00280800421 150.953436,0.00468000701 151.673843,0.0393120589 C152.64988,0.0702001052 153.349837,0.686089028 153.768139,1.87949082 C154.18551,3.07476461 154.394661,4.02761403 154.399309,4.73616709 C154.898482,7.50579524 155.38743,10.2754234 155.865223,13.0469235 C155.866152,13.4016681 156.015811,13.9108528 156.31327,14.5754138 C156.461999,15.0649426 156.781767,15.3083029 157.275363,15.3083029 C157.768029,15.3092389 158.089656,15.0218865 158.240245,14.4453096 C158.644603,12.2737864 159.131691,9.39371007 159.717313,5.8050807 C159.929252,4.4750227 160.168149,3.30221295 160.433073,2.28477942 C160.646872,1.2673459 160.922021,0.637416955 161.259451,0.396864594 C161.595951,0.158184237 162.381428,0.0224640336 163.614022,0 C165.771528,0.0393120589 167.311806,0.107640161 168.233928,0.178776268 C168.952477,0.2003043 169.448861,0.361296541 169.721222,0.658944987 C169.992653,0.956593433 170.066088,1.43676215 169.940597,2.09757914 C169.937809,2.18649928 169.783502,2.9362364 169.482325,4.34491851 C169.328948,5.1386477 169.175571,5.93237689 169.024053,6.72610607 C167.835147,12.2129463 166.690861,17.7044665 165.591193,23.2016028" id="Fill-8" fill="#FFFFFF"></path>
                <path d="M195.527138,46.0826289 C195.386854,47.3200531 195.239137,48.2223024 195.085847,48.7856215 C194.960428,49.4897703 194.643627,49.8765827 194.135446,49.9545085 C193.625407,50.0314955 192.832942,50.0099016 191.755263,49.8962989 C186.881556,49.3836785 181.998558,48.9799666 177.110915,48.6832852 C176.434579,48.642914 175.884591,48.5790712 175.460023,48.4870624 C175.035455,48.3978702 174.693571,48.2345077 174.434371,47.9979137 C174.17517,47.7622585 174.032099,47.4327169 174.008874,47.0064721 C173.984719,46.5830439 174.009803,45.6160129 174.085054,44.1044401 C174.727945,31.1725122 175.370836,18.2415231 176.014656,5.31053409 C176.075972,4.0674767 176.181882,3.23658108 176.331456,2.82066384 C176.479172,2.40662433 176.787611,2.15406962 177.254915,2.06675517 C177.722219,1.98225731 178.648465,1.97568525 180.031795,2.06018311 C185.566974,2.39817455 191.097508,2.85727958 196.616894,3.43843708 C198.252921,3.61118826 199.283218,3.88533687 199.706858,4.24679993 C200.029232,4.59793548 200.085903,5.70016311 199.875942,7.55723828 C199.756096,8.61721698 199.648328,9.34483743 199.553567,9.73634418 C199.422573,10.4386153 199.075115,10.8226111 198.510263,10.893026 C197.943553,10.9643797 196.934623,10.9193142 195.480686,10.7672181 C192.999239,10.5090302 190.515933,10.2752527 188.03077,10.0658858 C186.821169,10.0095539 185.976678,10.1560169 185.496368,10.4977638 C185.016986,10.8404495 184.688109,11.539904 184.510663,12.598005 C184.416831,13.5274815 184.323928,14.4569579 184.231025,15.3873732 C184.168779,16.231413 184.126044,17.4998197 184.10096,19.1925935 C184.041502,19.9915677 184.214302,20.6515898 184.615644,21.17266 C184.936161,21.4655859 185.373735,21.6777694 185.92651,21.8110882 C186.477426,21.945346 187.265247,22.0551932 188.285325,22.1434465 C190.228862,22.3143199 191.417095,22.4542108 191.850025,22.5396476 C192.724245,22.6250843 193.292813,22.828818 193.554801,23.1470933 C193.816788,23.4653686 193.931059,24.0230544 193.898543,24.8248452 C193.864169,25.4031861 193.829794,25.981527 193.794491,26.5589291 C193.735962,27.1353922 193.604039,27.9484494 193.400581,28.9999783 C193.310465,29.886267 192.737251,30.3181449 191.684657,30.3021842 C190.966514,30.2768349 189.372294,30.1397606 186.900137,29.9285159 C185.473142,29.8064635 184.517167,29.9228827 184.038715,30.2646296 C183.557476,30.6063765 183.244391,31.4654381 183.096675,32.8361811 C182.909939,34.0726665 182.791023,35.0669246 182.735281,35.8198944 C182.699049,36.6432791 182.661888,37.465725 182.624726,38.2891096 C182.639591,39.3603547 182.840262,40.1123857 183.225811,40.5423859 C183.61043,40.9742638 184.352728,41.2559234 185.454561,41.3911199 C187.710253,41.5807707 189.965017,41.7929542 192.216993,42.0267316 C192.492916,42.0558364 192.985303,42.1196793 193.696014,42.2182601 C194.404866,42.3196575 194.921408,42.4886532 195.243783,42.7252472 C195.566157,42.9627801 195.721306,43.3289375 195.712944,43.819964 C195.69808,44.3551171 195.636764,45.1118423 195.527138,46.0826289" id="Fill-10" fill="#FFFFFF"></path>
                <path d="M236.296761,34.5321712 C236.339272,33.9055706 236.372336,33.2639841 236.395008,32.6092848 C236.41957,31.9555222 236.430906,31.4001049 236.43374,30.9449063 C236.440352,30.469102 236.446021,29.9932976 236.451689,29.5174933 C236.463025,29.2458727 236.391229,28.8890195 236.237247,28.4469336 C236.111604,28.1003832 235.901886,27.8952628 235.611869,27.8315725 C235.271785,27.7575793 234.970432,27.8512416 234.709701,28.1134959 C233.822648,29.3760633 233.002667,31.2877102 232.249758,33.8521831 C232.154345,34.0582401 232.069324,34.3354804 231.994695,34.6829674 C231.947461,34.9002639 232.112779,35.1156871 232.487817,35.3320469 C232.86191,35.5493434 233.309687,35.7151256 233.833039,35.8293936 C234.401736,35.9539644 234.902416,35.9951758 235.336023,35.954901 C235.767741,35.9146262 236.028473,35.8153442 236.115383,35.6514353 C236.175842,35.2786594 236.236302,34.904947 236.296761,34.5321712 M243.231647,54.5056499 C243.028542,55.2783636 242.735691,55.7522947 242.35593,55.930253 C242.01868,56.1194508 240.732972,55.9208868 238.49125,55.369216 C237.773294,55.1931309 237.056283,55.0198557 236.338327,54.8484538 C235.719563,54.6564461 235.307683,54.3988749 235.098909,54.0757401 C234.879743,53.7975631 234.776773,53.430407 234.789999,52.9780183 C234.801335,52.5256295 234.870296,51.6292816 234.993105,50.2908478 C235.137641,48.8653081 235.199045,48.0813549 235.18393,47.9417981 C235.314295,46.9705204 235.310517,46.0573133 235.168815,45.2049866 C235.026168,44.35266 234.44897,43.7878765 233.437219,43.5171926 C233.256785,43.4544388 233.076352,43.3916851 232.895918,43.3279948 C231.548806,43.0310854 230.592791,42.8971483 230.031652,42.9140076 C229.468624,42.9299301 229.011399,43.1416069 228.660924,43.5443546 C228.307614,43.9471024 227.943912,44.6982738 227.568875,45.799742 C226.876426,47.4931559 226.188699,49.1884429 225.505697,50.8846666 C225.125936,51.8044301 224.461827,52.166903 223.514314,51.9786419 C222.538461,51.8072399 221.561663,51.6395845 220.584866,51.4766121 C219.797004,51.3052102 219.009142,51.1356815 218.220335,50.9698993 C217.276601,50.7535394 216.88078,50.2327772 217.030984,49.4029295 C217.08672,49.0966539 217.299273,48.4344616 217.672421,47.4191627 C219.96988,41.2908404 222.615925,34.3832482 225.663458,26.7151183 C228.712881,19.047925 231.163377,13.1612514 232.909144,9.02887213 C233.335194,7.98172797 233.811312,7.35325415 234.336553,7.14345067 C234.86085,6.93271057 235.74129,6.95331627 236.972207,7.2108875 C239.307452,7.70167779 241.638919,8.2140104 243.966607,8.74788533 C244.763916,9.02231577 245.29577,9.2836335 245.561225,9.5271554 C245.887139,9.9692413 246.03262,10.9386458 245.993888,12.4344322 C245.442196,25.8356296 244.623159,39.199362 243.537723,52.5190732 C243.470651,53.3283152 243.367681,53.9895708 243.231647,54.5056499" id="Fill-12" fill="#FFFFFF"></path>
                <path d="M274.129373,30.1537638 C273.74788,29.4798515 272.971372,28.8226019 271.797919,28.1866434 C271.440571,28.0079826 271.083223,27.8302475 270.724909,27.6534381 C270.438065,27.5210625 270.067195,27.384984 269.612301,27.2489056 C268.654222,26.9619374 267.954979,26.9878571 267.518435,27.3183334 C267.080925,27.6488096 266.688808,28.35975 266.342084,29.4493033 C265.979907,30.6730836 265.61773,31.8977896 265.255553,33.1215699 C264.640335,35.0516621 264.254013,36.3032135 264.096586,36.8780755 C263.941092,37.4501604 263.857067,37.7593454 263.843545,37.8000764 C263.509377,38.8498244 263.904391,39.6996204 265.025691,40.3531672 C265.580063,40.6114385 265.978941,40.7771395 266.222324,40.8511958 C267.337829,41.1872262 268.418566,41.1872262 269.474191,40.8465672 C270.526919,40.5049826 271.343024,39.8958695 271.917678,39.0155253 C272.051925,38.7803966 272.186172,38.5461935 272.320419,38.3110648 C272.965577,36.4355891 273.610735,34.5610391 274.255893,32.6855634 C274.550464,31.6709922 274.507969,30.8258247 274.129373,30.1537638 M272.37547,67.0736045 C272.344564,67.1559921 272.313659,67.2383797 272.282753,67.3207674 C272.190036,67.5697817 272.018122,67.7539967 271.768944,67.878041 C271.520732,68.0020853 271.230991,68.0317078 270.902617,67.9659828 C270.200476,67.8187959 269.13133,67.5022053 267.693246,67.0254679 C266.435767,66.6089012 265.477688,66.2747222 264.817077,66.0155251 C264.170953,65.7155971 263.816503,65.2916248 263.755657,64.7399054 C263.695777,64.1900374 263.737307,63.2671109 263.87928,61.9729771 C263.941092,61.34535 264.066646,59.5152338 264.22697,56.4742971 C264.35832,54.646958 264.482909,52.8196189 264.600737,50.9904284 C264.689591,50.0971243 264.665446,49.3871096 264.528301,48.8613099 C264.38826,48.3355102 263.937229,47.9568974 263.17714,47.7282485 C262.417051,47.5005254 261.802799,47.5023768 261.339212,47.7328771 C260.87466,47.964303 260.549183,48.2920021 260.361817,48.7187515 C260.174451,49.1455009 259.887607,49.8758811 259.507079,50.9117436 C258.565419,53.8702926 257.623759,56.8279159 256.681133,59.7855392 C256.614492,59.995674 256.481211,60.4501945 256.285152,61.1481751 C256.087162,61.8480071 255.798386,62.3256702 255.418825,62.5811644 C255.041195,62.8394357 254.557327,62.8801667 253.966254,62.7107629 C253.454377,62.6080098 252.65469,62.404355 251.56333,62.0979471 C250.47197,61.7933906 249.659727,61.5462277 249.126603,61.3555327 C248.409009,61.1148498 248.036209,60.7528996 248.006269,60.2669052 C247.976329,59.7809107 248.053593,59.22086 248.239028,58.5867529 C248.423497,57.9526459 248.551949,57.5092338 248.626316,57.255591 C252.262573,44.7696995 255.89883,32.283808 259.536053,19.7979165 C260.003503,18.1918206 260.459363,17.2892595 260.908463,17.0911589 C261.165367,16.978223 261.600945,16.9698917 262.215198,17.0680163 C262.82945,17.1679923 263.732478,17.3799784 264.923316,17.7123061 C266.113188,18.0455594 267.301129,18.3834412 268.488104,18.7268773 C269.85665,19.1230785 271.222299,19.5257596 272.586982,19.9367721 C274.56978,20.4412806 276.700347,21.3743899 278.955502,22.7407286 C280.908361,23.826579 282.330026,25.2706768 283.214704,27.0526564 C284.098416,28.8355617 284.231697,30.6055072 283.637727,32.3569386 C283.488027,32.9123608 283.016714,34.2648139 282.219925,36.4133722 C281.193273,39.1830777 280.300869,41.5112225 279.549473,43.3959552 C279.028904,44.8011734 277.784946,46.0286565 275.842712,47.0978443 C274.88753,47.6634493 274.257825,48.3827211 273.944904,49.2538082 C273.780717,49.7101802 273.679308,50.2100602 273.641641,50.7543739 C273.52671,53.4083664 273.252422,58.1016842 272.691289,64.803779 C272.669075,65.5434163 272.563802,66.2997162 272.37547,67.0736045" id="Fill-14" fill="#FFFFFF"></path>
                <path d="M298.259972,72.7992074 C297.751077,73.9132701 297.336319,74.7096869 297.014765,75.1884576 C296.682026,75.8071768 296.256083,76.0705007 295.736936,75.9839537 C295.217789,75.8983274 294.453515,75.6322413 293.43759,75.1902991 C288.845423,73.1969554 284.21877,71.3104145 279.563224,69.5288348 C278.919183,69.2820837 278.404697,69.0528262 278.019764,68.8373793 C277.633898,68.6237739 277.352422,68.3659743 277.172538,68.0649011 C276.991722,67.7656694 276.951644,67.4130363 277.058829,67.0079226 C277.162286,66.6037296 277.478248,65.7087965 278.006715,64.3194406 C279.92672,59.2757747 281.845793,54.2311881 283.764866,49.1875223 C283.030417,48.3782155 282.291309,47.5716709 281.546608,46.7669678 C281.253015,46.4290661 281.174723,46.076433 281.311733,45.7063064 C281.447811,45.3380212 281.737676,45.1170501 282.185056,45.0470759 C283.283933,44.9108104 284.385605,44.7791484 285.491006,44.6530107 C287.519128,39.3239238 289.54725,33.9939162 291.575372,28.6639086 C292.010635,27.5213038 292.362947,26.7773676 292.634171,26.4348624 C292.902599,26.0932779 293.278211,25.9524088 293.757281,26.0140966 C294.237282,26.0785465 295.137634,26.3575225 296.45554,26.8620732 C301.727166,28.8811969 306.96617,31.0209339 312.166028,33.2794429 C313.706692,33.949722 314.628481,34.5260883 314.932326,34.995652 C315.142036,35.4247042 314.864287,36.4724756 314.100014,38.142649 C313.66475,39.0965077 313.341332,39.7419275 313.130691,40.0789085 C312.791428,40.6948655 312.337523,40.9462201 311.76525,40.8357346 C311.190181,40.7243283 310.22179,40.3698538 308.851689,39.7759939 C306.513198,38.7632096 304.16725,37.7752845 301.812913,36.811298 C300.65625,36.3840872 299.789452,36.2607116 299.220907,36.4319643 C298.650497,36.6041376 298.120166,37.1556447 297.62898,38.0892477 C297.258028,38.9298586 296.888007,39.7695489 296.517055,40.6101599 C296.202957,41.379876 295.777014,42.5510229 295.243886,44.1263629 C294.945633,44.8546469 294.914876,45.5249259 295.146954,46.1353587 C295.370644,46.5082474 295.730412,46.8415455 296.22719,47.1361737 C296.723968,47.4326433 297.456552,47.7788314 298.421215,48.1765794 C300.261065,48.9380091 301.374854,49.4388769 301.771904,49.6515616 C302.59676,50.003274 303.087946,50.3706385 303.248257,50.7490515 C303.406704,51.1274646 303.349849,51.684496 303.075829,52.4238285 C302.867984,52.9532385 302.661071,53.4826485 302.453226,54.0120584 C302.222079,54.5322613 301.848331,55.2513382 301.334776,56.1711304 C300.979668,56.9721508 300.291822,57.1968047 299.271237,56.8552202 C298.580594,56.6084691 297.069755,55.9860671 294.728468,55.0230013 C293.37794,54.4696528 292.414209,54.2818274 291.844732,54.45308 C291.274323,54.6234119 290.710438,55.3305195 290.154941,56.5661163 C289.600376,57.6626855 289.185618,58.5557771 288.905074,59.242629 C288.621733,60.0003759 288.337461,60.7581227 288.053188,61.5158695 C287.74375,62.5212881 287.712993,63.2854799 287.95812,63.8066034 C288.201382,64.3295684 288.838899,64.8221499 289.867872,65.2889514 C292.005043,66.1636287 294.134757,67.0604032 296.257947,67.9792748 C296.517987,68.0925225 296.978415,68.3042865 297.639232,68.6173289 C298.30005,68.9322128 298.753954,69.2507795 298.995353,69.573029 C299.237683,69.8961993 299.278693,70.2856609 299.123042,70.7432552 C298.947818,71.2385988 298.658886,71.9254507 298.259972,72.7992074" id="Fill-16" fill="#FFFFFF"></path>
            </g>
        </g>
    </g>
</svg>